<?xml version="1.0" encoding="UTF-8"?>
<svg id="Layer_1" data-name="Layer 1" xmlns="http://www.w3.org/2000/svg" version="1.1" viewBox="0 0 800 800">
  <defs>
    <style>
      .cls-1 {
        fill: #ff4a17;
        stroke-width: 0px;
      }
    </style>
  </defs>
  <path class="cls-1" d="M629.8,170.2c-61.4-61.4-143-95.2-229.8-95.2s-168.4,33.8-229.8,95.2c-61.4,61.4-95.2,143-95.2,229.8s33.8,168.4,95.2,229.8c61.4,61.4,143,95.2,229.8,95.2s168.4-33.8,229.8-95.2c61.4-61.4,95.2-143,95.2-229.8s-33.8-168.4-95.2-229.8ZM400,675c-151.6,0-275-123.4-275-275S248.4,125,400,125s275,123.4,275,275-123.4,275-275,275Z"/>
  <path class="cls-1" d="M559,559c-4.9,4.9-11.3,7.3-17.7,7.3s-12.8-2.4-17.7-7.3l-141.3-141.3c-.9-.9-1.7-1.8-2.4-2.7-.2-.3-.4-.5-.6-.8,0,0-.1-.2-.2-.2-.2-.2-.3-.5-.5-.7,0-.1-.1-.2-.2-.3-.2-.3-.4-.6-.5-.9,0,0,0,0,0,0-.2-.3-.3-.6-.5-.9,0,0,0-.1,0-.2,0-.2-.2-.4-.3-.6-.1-.2-.2-.4-.3-.7-.2-.3-.3-.7-.4-1.1,0-.2-.1-.4-.2-.6,0-.2-.2-.5-.2-.7-.1-.3-.2-.7-.3-1,0-.3-.1-.6-.2-.9,0-.3-.1-.6-.2-.9,0-.3-.1-.6-.1-.8,0-.4-.1-.7-.1-1.1,0-.3,0-.5,0-.8,0-.2,0-.4,0-.6,0-.4,0-.8,0-1.2v-200c0-13.8,11.2-25,25-25s25,11.2,25,25v189.6l134,134c9.8,9.8,9.8,25.6,0,35.4Z"/>
</svg>