<?xml version="1.0" encoding="UTF-8"?>
<svg id="Icons" xmlns="http://www.w3.org/2000/svg" version="1.1" viewBox="0 0 800 800">
  <defs>
    <style>
      .cls-1 {
        fill: #fff;
        stroke-width: 0px;
      }
    </style>
  </defs>
  <path class="cls-1" d="M325,585c-9.8,0-17.4-3.2-24.6-10.4-14-14-14-35.1,0-49.1l125.4-125.4-125.4-125.4c-14-14-14-35.1,0-49.1,6.7-6.7,15.5-10.4,24.6-10.4s17.8,3.7,24.6,10.4l150,150c14,14,14,35.1,0,49.1l-150,150c-7.2,7.2-14.8,10.4-24.6,10.4Z"/>
  <path class="cls-1" d="M325,575c-7.5,0-12.5-2.5-17.5-7.5-10-10-10-25,0-35l132.5-132.5-132.5-132.5c-10-10-10-25,0-35s25-10,35,0l150,150c10,10,10,25,0,35l-150,150c-5,5-10,7.5-17.5,7.5Z"/>
</svg>