<?xml version="1.0" encoding="UTF-8"?>
<svg id="Layer_1" data-name="Layer 1" xmlns="http://www.w3.org/2000/svg" version="1.1" viewBox="0 0 500 500">
  <defs>
    <style>
      .cls-1 {
        fill: #040a6f;
      }

      .cls-1, .cls-2, .cls-3, .cls-4, .cls-5, .cls-6, .cls-7, .cls-8, .cls-9, .cls-10, .cls-11, .cls-12, .cls-13, .cls-14 {
        stroke-width: 0px;
      }

      .cls-2 {
        fill: #fc9972;
      }

      .cls-3 {
        fill: #ffdf00;
      }

      .cls-15, .cls-9 {
        opacity: .5;
      }

      .cls-4, .cls-11 {
        fill: #ff4a17;
      }

      .cls-16, .cls-9, .cls-11 {
        isolation: isolate;
      }

      .cls-5 {
        fill: #0b6b36;
      }

      .cls-6 {
        fill: #7a1100;
      }

      .cls-7 {
        fill: #aa2102;
      }

      .cls-8 {
        fill: #011f92;
      }

      .cls-9, .cls-13 {
        fill: #fff;
      }

      .cls-10 {
        fill: #ffa91b;
      }

      .cls-11 {
        mix-blend-mode: screen;
        opacity: .2;
      }

      .cls-12 {
        fill: #ffbd00;
      }

      .cls-14 {
        fill: #00baff;
      }
    </style>
  </defs>
  <g class="cls-16">
    <g id="OBJECTS">
      <g>
        <g>
          <path class="cls-11" d="M38,259.8c.6,18.6,3.9,36.4,10.2,51.8,9.4,23,28,43.5,52.9,51.8,43.9,14.5,85.4-11.9,128.7-14.3,40.8-2.2,80.3,12.3,120.6,18.7,22.6,3.6,46.4,4.4,67.6-3.5,43.6-16.2,49-55.9,43.1-94.2-7.9-51-24.9-95.8-75.1-122.2-18.5-9.7-39-15.9-57.6-25.1-20.2-10.1-40.7-20.2-61.8-28.6-50.3-20-110.6-11.2-156.5,14.9-48.8,27.8-73.9,93.3-72.2,150.7h0Z"/>
          <path class="cls-11" d="M66.1,310.4c5.2,16.8,12.8,32.1,22.4,44.4,14.3,18.5,36.4,32.4,61,33.6,43.5,2.1,74.5-32.4,113.2-45.5,36.5-12.3,76-9.1,114.1-13.5,21.4-2.5,43.2-7.7,60.5-20.3,35.5-25.7,30.3-63.1,15.3-96.4-20-44.2-46.7-80.7-99-91.9-19.3-4.1-39.4-4.5-58.6-8.3-20.9-4.1-42-8-63.3-10.3-50.7-5.4-103.2,17.8-138.2,53.1-37.3,37.5-43.5,103.3-27.4,155h0Z"/>
        </g>
        <path class="cls-9" d="M398.4,183.1v-.6c0-8.4-6.8-15.3-15.3-15.3s-11.4,3.6-13.8,8.8c-2.6-2.1-6-3.4-9.6-3.4-7.6,0-14,5.6-15.1,12.9-3.7,2.8-6.2,7.2-6.2,12.3,0,8.4,6.8,15.3,15.3,15.3h40.3c8.4,0,15.3-6.8,15.3-15.3s-4.6-12.8-11-14.7h.1Z"/>
        <path class="cls-9" d="M265.7,112.9v-.6c0-8.4-6.8-15.3-15.3-15.3s-11.4,3.6-13.8,8.8c-2.6-2.1-6-3.4-9.6-3.4-7.6,0-14,5.6-15.1,12.9-3.7,2.8-6.2,7.2-6.2,12.3,0,8.4,6.8,15.3,15.3,15.3h40.3c8.4,0,15.3-6.8,15.3-15.3s-4.6-12.8-11-14.7h.1Z"/>
        <g class="cls-15">
          <polygon class="cls-13" points="221.7 302.1 228.8 302.1 228.8 296.9 216.3 296.9 221.7 302.1"/>
          <polygon class="cls-13" points="223.6 372.8 227.9 372.8 227.9 300.2 222.5 300.2 223.6 372.8"/>
          <polygon class="cls-13" points="207.2 301.3 213.2 301.3 213.2 296.9 202.6 296.9 207.2 301.3"/>
          <polygon class="cls-13" points="208.8 367.1 212.5 367.1 212.5 299.7 207.9 299.7 208.8 367.1"/>
          <rect class="cls-13" x="131.3" y="293.7" width="93.5" height="4.3"/>
          <polygon class="cls-13" points="140.6 302.1 133.6 302.1 133.6 296.9 146 296.9 140.6 302.1"/>
          <polygon class="cls-13" points="138.7 372.8 134.4 372.8 134.4 300.2 139.8 300.2 138.7 372.8"/>
          <polygon class="cls-13" points="155.1 301.3 149.2 301.3 149.2 296.9 159.7 296.9 155.1 301.3"/>
          <polygon class="cls-13" points="153.5 367.1 149.9 367.1 149.9 299.7 154.4 299.7 153.5 367.1"/>
        </g>
        <g>
          <polygon class="cls-13" points="153.9 280.6 154.5 288.8 161.5 288.8 161 279.9 153.9 280.6"/>
          <g>
            <path class="cls-8" d="M153,288.8c0-.9.7-1.6,1.6-1.6h11.2c3.8,0,6.9,1.5,8.1,4.1.5,1-.3,2.2-1.5,2.2h-17.8c-.9,0-1.6-.7-1.6-1.5v-3.2Z"/>
            <path class="cls-14" d="M153.1,292c0,.9.7,1.5,1.6,1.5h17.8c1,0,1.7-.9,1.6-1.8h-20.9v.2h-.1Z"/>
            <path class="cls-13" d="M162.2,290.1c-.4,0-.7-.3-.7-.7v-2.5c0-.4.3-.7.7-.7s.7.3.7.7v2.5c0,.4-.3.7-.7.7Z"/>
            <path class="cls-13" d="M164.8,290.1c-.4,0-.7-.3-.7-.7v-2.5c0-.4.3-.7.7-.7s.7.3.7.7v2.5c0,.4-.3.7-.7.7Z"/>
          </g>
          <polygon class="cls-13" points="194.9 280.6 195.4 288.8 202.5 288.8 201.9 279.9 194.9 280.6"/>
          <g>
            <path class="cls-8" d="M194,288.8c0-.9.7-1.6,1.6-1.6h11.2c3.8,0,6.9,1.5,8.1,4.1.5,1-.3,2.2-1.5,2.2h-17.8c-.9,0-1.6-.7-1.6-1.5v-3.2Z"/>
            <path class="cls-14" d="M194,292c0,.9.7,1.5,1.6,1.5h17.8c1,0,1.7-.9,1.6-1.8h-20.9v.2h-.1Z"/>
            <path class="cls-13" d="M203.1,290.1c-.4,0-.7-.3-.7-.7v-2.5c0-.4.3-.7.7-.7s.7.3.7.7v2.5c0,.4-.3.7-.7.7Z"/>
            <path class="cls-13" d="M205.8,290.1c-.4,0-.7-.3-.7-.7v-2.5c0-.4.3-.7.7-.7s.7.3.7.7v2.5c0,.4-.3.7-.7.7Z"/>
          </g>
          <path class="cls-5" d="M195.2,205.8s7.9,55,8.2,78.1h-9s-4.6-38.7-19.5-73.3c5.1-4,11.5-5.9,20.2-4.8h.1Z"/>
          <path class="cls-5" d="M191.2,203.2s-21.1,38.8-28.7,79.8h-10.4s3.7-32.3,11.8-73.3l27.3-6.5h0Z"/>
          <path class="cls-4" d="M194.9,152c-19.8,0-37.9,12.7-42.7,28.2-3.3,10.4,5.3,24.7,8.1,28.9l1.9-1.3c-.2,1.7-.3,3.4-.5,5,8.8,2.1,35.2.7,35.2.7,2.4-20.6,8.1-37.1,10.7-36.6,2.7.6,11.2,5.2,11.2,5.2l.6-11.4s-10.1-18.8-24.6-18.8h.1ZM161.1,185.4c.7-2.7,3-7.1,6-9-1.8,6.9-3,14.2-3.8,21.4-1.8-4.8-3.1-8.9-2.2-12.5h0Z"/>
          <path class="cls-13" d="M165.5,205.1s5.1,5.5,3.8,7.7-8.5-4.2-8.5-4.2l4.7-3.5Z"/>
          <g>
            <path class="cls-13" d="M212.1,138.7s-.8,19.1-6.1,20.1-5.2,0-7.3,0-3.2,4.5-3.2,4.5c0,0-4.8,2-8.8-1.1l4.4-23.4h21Z"/>
            <path class="cls-13" d="M191.5,146.7s-.7-3.7-3.4-2.8c-2.7.8-1.9,7.8,1,7.4l2.3-4.6h0Z"/>
            <path class="cls-6" d="M188.1,143.8s1.4-6.5,1.6-8c.2-1.5,7.2-4.6,12-7l-1.2,3.1s2.7-3.1,11.8-4.4l-2.2,4.9,6.2-1.8s-2.1,8.3-4.3,11.6c0,0-5,.7-9.1,0s-6-1.1-6.8,1.1c-.8,2.2-2.6,2.1-2.8,2.9-.3.8-1.2,4.3-1.2,4.3h-1.8s.4-3.4.5-4.5c0-1.1-.4-2.5-2.6-2.2h0Z"/>
          </g>
        </g>
        <polygon class="cls-13" points="434.2 369.9 435.2 377.1 428 377.1 426.1 368 434.2 369.9"/>
        <g>
          <path class="cls-8" d="M435.4,376.3c0-.9-.7-1.6-1.6-1.6h-11.2c-3.8,0-6.9,1.5-8.1,4.1-.5,1,.3,2.2,1.5,2.2h17.8c.9,0,1.6-.7,1.6-1.5v-3.2h0Z"/>
          <path class="cls-14" d="M435.3,379.4c0,.9-.7,1.5-1.6,1.5h-17.8c-1,0-1.7-.9-1.6-1.8h20.9v.2h.1Z"/>
          <path class="cls-13" d="M426.2,377.5c.4,0,.7-.3.7-.7v-2.5c0-.4-.3-.7-.7-.7s-.7.3-.7.7v2.5c0,.4.3.7.7.7Z"/>
          <path class="cls-13" d="M423.6,377.5c.4,0,.7-.3.7-.7v-2.5c0-.4-.3-.7-.7-.7s-.7.3-.7.7v2.5c0,.4.3.7.7.7Z"/>
        </g>
        <polygon class="cls-13" points="388.6 368.7 388 377.1 380.8 377.1 381.4 368 388.6 368.7"/>
        <g>
          <path class="cls-8" d="M389.4,376.3c0-.9-.7-1.6-1.6-1.6h-11.2c-3.8,0-6.9,1.5-8.1,4.1-.5,1,.3,2.2,1.5,2.2h17.8c.9,0,1.6-.7,1.6-1.5v-3.2h0Z"/>
          <path class="cls-14" d="M389.3,379.4c0,.9-.7,1.5-1.6,1.5h-17.8c-1,0-1.7-.9-1.6-1.8h20.9v.2h.1Z"/>
          <path class="cls-13" d="M380.2,377.5c.4,0,.7-.3.7-.7v-2.5c0-.4-.3-.7-.7-.7s-.7.3-.7.7v2.5c0,.4.3.7.7.7Z"/>
          <path class="cls-13" d="M377.5,377.5c.4,0,.7-.3.7-.7v-2.5c0-.4-.3-.7-.7-.7s-.7.3-.7.7v2.5c0,.4.3.7.7.7Z"/>
        </g>
        <g>
          <path class="cls-2" d="M156.1,277.5s4.4,2.3,9.8,2.8c5,.5,1.1,4.7-2.6,4.2-2.8-.4-9.2-2.3-9.2-2.3l1.9-4.8h.1Z"/>
          <path class="cls-13" d="M157.1,282.4s4.7,1.4,10.2,1c5-.4,1.9,4.4-1.8,4.6-2.9.1-9.4-.6-9.4-.6l1-5.1h0Z"/>
          <path class="cls-7" d="M119.6,239.2s11.3,28.3,40.1,38.7l-2.5,6.9s-22.7-3.9-34.7-16.7c-12.1-12.8-11.3-26.3-11.3-26.3l8.4-2.5h0Z"/>
          <polygon class="cls-13" points="49.7 350.4 42.8 352.1 45.4 358.7 54.3 357.1 49.7 350.4"/>
          <g>
            <path class="cls-8" d="M42.2,350.8c.8-.3,1.7,0,2.1.9l4.1,10.5c1.4,3.5,1.1,7-.9,9-.8.8-2.2.5-2.6-.6l-6.5-16.5c-.3-.8,0-1.7.9-2l2.9-1.2h0Z"/>
            <path class="cls-14" d="M39.3,352c-.8.3-1.2,1.2-.9,2l6.5,16.5c.4.9,1.4,1.3,2.2.8l-7.7-19.5h-.2v.2Z"/>
            <path class="cls-13" d="M44.4,359.8c0-.3,0-.7.4-.9l2.4-.9c.3-.1.7,0,.9.4,0,.3,0,.7-.4.9l-2.4.9c-.3.1-.7,0-.9-.4Z"/>
            <path class="cls-13" d="M45.4,362.2c0-.3,0-.7.4-.9l2.4-.9c.3-.1.7,0,.9.4,0,.3,0,.7-.4.9l-2.4.9c-.3.1-.7,0-.9-.4Z"/>
          </g>
          <polygon class="cls-13" points="119.7 369.2 118.8 376.3 125.8 376.3 127.6 367.4 119.7 369.2"/>
          <path class="cls-5" d="M126,287.1s10,29.5,11.1,42.1c1.1,12.9-9.2,41.4-9.2,41.4h-9.2s2.6-20.3,4.1-32.9-27.7-48.4-27.7-48.4l31-2.2h-.1Z"/>
          <path class="cls-5" d="M120.2,293.5s-17.5,36-22.2,43.2-46.9,22.7-46.9,22.7l-3.7-10.2s24.2-11.7,33.1-17.3c8.9-5.5,11.4-37.4,11.4-37.4l28.3-1.1h0Z"/>
          <path class="cls-13" d="M136.1,208.9l2.1,7.5h-2.4s-.9,8.7-6.1,9c-5.3.4-8,6.3-8,6.3h-9.5l2.6-22.7,21.2-.2h0Z"/>
          <path class="cls-6" d="M136.1,208.9s-5.6,4.3-10.3,5.2c-4.6.9-8.1-1.5-10,.1-2.2,1.8-1.8,4.8.4,5.8l-1.3,3.6h-2.7s1.6-13.3,2.1-16.9c.4-3.6,17-5.5,21.8-5.2s0,7.3,0,7.3h0Z"/>
          <path class="cls-4" d="M112.2,231.8s-3.9,1.6-9.2,9.9c-5.3,8.3-14.4,55.4-14.4,55.4h43.8s-2.5-27.4-4.4-42.7c-1.9-15.2-6.3-22.6-6.3-22.6,0,0-9.5,0-9.5,0Z"/>
          <path class="cls-4" d="M116.1,238.4s5.7,20.5,16.4,30.3c10.7,9.7,28.9,13.4,28.9,13.4l-1.7,6.4s-14.4-.3-31.9-10.4c-17.5-10.1-22.4-28.1-22.4-28.1l10.7-11.6h0Z"/>
          <path class="cls-4" d="M130.7,279.5c-20.3-9.8-25.3-29.4-25.3-29.4,3.8,22.3,19.2,33.7,26.1,37.8-.2-2.5-.5-5.3-.8-8.4Z"/>
          <g>
            <path class="cls-8" d="M117.3,376.3c0-.9.7-1.6,1.6-1.6h11.2c3.8,0,6.9,1.5,8.1,4.1.5,1-.3,2.2-1.5,2.2h-17.8c-.9,0-1.6-.7-1.6-1.5,0,0,0-3.2,0-3.2Z"/>
            <path class="cls-14" d="M117.4,379.4c0,.9.7,1.5,1.6,1.5h17.8c1,0,1.7-.9,1.6-1.8h-20.9v.2h-.1Z"/>
            <path class="cls-13" d="M126.5,377.5c-.4,0-.7-.3-.7-.7v-2.5c0-.4.3-.7.7-.7s.7.3.7.7v2.5c0,.4-.3.7-.7.7Z"/>
            <path class="cls-13" d="M129.1,377.5c-.4,0-.7-.3-.7-.7v-2.5c0-.4.3-.7.7-.7s.7.3.7.7v2.5c0,.4-.3.7-.7.7Z"/>
          </g>
        </g>
        <g>
          <path class="cls-10" d="M284.7,180.9l1.5-5.1c.6-1.9,0-4-1.4-5.5l-3.6-3.6-3.6-3.6c-1.4-1.4-3.5-2-5.5-1.4l-5.1,1.5c-2.5.7-5.1-.4-6.4-2.7l-2.6-4.7c-1-1.8-2.9-2.9-4.9-2.9h-10.1c-2,0-3.9,1.1-4.9,2.9l-2.6,4.7c-1.3,2.3-3.9,3.4-6.4,2.7l-5.1-1.5c-1.9-.6-4,0-5.5,1.4l-3.6,3.6-3.6,3.6c-1.4,1.4-2,3.5-1.4,5.5l1.5,5.1c.7,2.5-.4,5.1-2.7,6.4l-4.7,2.6c-1.8,1-2.9,2.9-2.9,4.9v10.1c0,2,1.1,3.9,2.9,4.9l4.7,2.6c2.3,1.3,3.4,3.9,2.7,6.4l-1.5,5.1c-.6,1.9,0,4,1.4,5.5l3.6,3.6,3.6,3.6c1.4,1.4,3.5,2,5.5,1.4l5.1-1.5c2.5-.7,5.1.4,6.4,2.7l2.6,4.7c1,1.8,2.9,2.9,4.9,2.9h10.1c2,0,3.9-1.1,4.9-2.9l2.6-4.7c1.3-2.3,3.9-3.4,6.4-2.7l5.1,1.5c1.9.6,4,0,5.5-1.4l3.6-3.6,3.6-3.6c1.4-1.4,2-3.5,1.4-5.5l-1.5-5.1c-.7-2.5.4-5.1,2.7-6.4l4.7-2.6c1.8-1,2.9-2.9,2.9-4.9v-10.1c0-2-1.1-3.9-2.9-4.9l-4.7-2.6c-2.3-1.3-3.4-3.9-2.7-6.4Z"/>
          <circle class="cls-13" cx="248.1" cy="200.1" r="13.4"/>
          <path class="cls-13" d="M248.1,225.9c-14.2,0-25.8-11.6-25.8-25.8s11.6-25.8,25.8-25.8,25.8,11.6,25.8,25.8-11.6,25.8-25.8,25.8h0ZM248.1,175.8c-13.4,0-24.3,10.9-24.3,24.3s10.9,24.3,24.3,24.3,24.3-10.9,24.3-24.3-10.9-24.3-24.3-24.3h0Z"/>
          <path class="cls-13" d="M248.1,220.9c-11.4,0-20.8-9.3-20.8-20.8s9.3-20.8,20.8-20.8,20.8,9.3,20.8,20.8-9.3,20.8-20.8,20.8h0ZM248.1,183c-9.5,0-17.1,7.7-17.1,17.1s7.7,17.1,17.1,17.1,17.1-7.7,17.1-17.1-7.7-17.1-17.1-17.1Z"/>
        </g>
        <g>
          <path class="cls-4" d="M307.7,270.9l1.5-5.1c.6-1.9,0-4-1.4-5.5l-3.6-3.6-3.6-3.6c-1.4-1.4-3.5-2-5.5-1.4l-5.1,1.5c-2.5.7-5.1-.4-6.4-2.7l-2.6-4.7c-1-1.8-2.9-2.9-4.9-2.9h-10.1c-2,0-3.9,1.1-4.9,2.9l-2.6,4.7c-1.3,2.3-3.9,3.4-6.4,2.7l-5.1-1.5c-1.9-.6-4,0-5.5,1.4l-3.6,3.6-3.6,3.6c-1.4,1.4-2,3.5-1.4,5.5l1.5,5.1c.7,2.5-.4,5.1-2.7,6.4l-4.7,2.6c-1.8,1-2.9,2.9-2.9,4.9v10.1c0,2,1.1,3.9,2.9,4.9l4.7,2.6c2.3,1.3,3.4,3.9,2.7,6.4l-1.5,5.1c-.6,1.9,0,4,1.4,5.5l3.6,3.6,3.6,3.6c1.4,1.4,3.5,2,5.5,1.4l5.1-1.5c2.5-.7,5.1.4,6.4,2.7l2.6,4.7c1,1.8,2.9,2.9,4.9,2.9h10.1c2,0,3.9-1.1,4.9-2.9l2.6-4.7c1.3-2.3,3.9-3.4,6.4-2.7l5.1,1.5c1.9.6,4,0,5.5-1.4l3.6-3.6,3.6-3.6c1.4-1.4,2-3.5,1.4-5.5l-1.5-5.1c-.7-2.5.4-5.1,2.7-6.4l4.7-2.6c1.8-1,2.9-2.9,2.9-4.9v-10.1c0-2-1.1-3.9-2.9-4.9l-4.7-2.6c-2.3-1.3-3.4-3.9-2.7-6.4Z"/>
          <circle class="cls-13" cx="271.1" cy="290.1" r="13.4"/>
          <path class="cls-13" d="M271.1,315.9c-14.2,0-25.8-11.6-25.8-25.8s11.6-25.8,25.8-25.8,25.8,11.6,25.8,25.8-11.6,25.8-25.8,25.8ZM271.1,265.8c-13.4,0-24.3,10.9-24.3,24.3s10.9,24.3,24.3,24.3,24.3-10.9,24.3-24.3-10.9-24.3-24.3-24.3Z"/>
          <path class="cls-13" d="M271.1,310.9c-11.4,0-20.8-9.3-20.8-20.8s9.3-20.8,20.8-20.8,20.8,9.3,20.8,20.8-9.3,20.8-20.8,20.8ZM271.1,273c-9.5,0-17.1,7.7-17.1,17.1s7.7,17.1,17.1,17.1,17.1-7.7,17.1-17.1-7.7-17.1-17.1-17.1Z"/>
        </g>
        <g>
          <path class="cls-3" d="M205.7,225.1l1-3.6c.4-1.4,0-2.9-1-3.9l-2.5-2.5-2.5-2.5c-1-1-2.5-1.4-3.9-1l-3.6,1c-1.8.5-3.6-.3-4.5-1.9l-1.8-3.3c-.7-1.3-2-2-3.5-2h-7.1c-1.4,0-2.8.8-3.5,2l-1.8,3.3c-.9,1.6-2.8,2.4-4.5,1.9l-3.6-1c-1.4-.4-2.9,0-3.9,1l-2.5,2.5-2.5,2.5c-1,1-1.4,2.5-1,3.9l1,3.6c.5,1.8-.3,3.6-1.9,4.5l-3.3,1.8c-1.3.7-2,2-2,3.5v7.1c0,1.4.8,2.8,2,3.5l3.3,1.8c1.6.9,2.4,2.8,1.9,4.5l-1,3.6c-.4,1.4,0,2.9,1,3.9l2.5,2.5,2.5,2.5c1,1,2.5,1.4,3.9,1l3.6-1c1.8-.5,3.6.3,4.5,1.9l1.8,3.3c.7,1.3,2,2,3.5,2h7.1c1.4,0,2.8-.8,3.5-2l1.8-3.3c.9-1.6,2.8-2.4,4.5-1.9l3.6,1c1.4.4,2.9,0,3.9-1l2.5-2.5,2.5-2.5c1-1,1.4-2.5,1-3.9l-1-3.6c-.5-1.8.3-3.6,1.9-4.5l3.3-1.8c1.3-.7,2-2,2-3.5v-7.1c0-1.4-.8-2.8-2-3.5l-3.3-1.8c-1.6-.9-2.4-2.8-1.9-4.5Z"/>
          <circle class="cls-13" cx="179.7" cy="238.9" r="9.5"/>
          <path class="cls-13" d="M179.8,256.9c-10.1,0-18.3-8.2-18.3-18.3s8.2-18.3,18.3-18.3,18.3,8.2,18.3,18.3-8.2,18.3-18.3,18.3ZM179.8,221.5c-9.5,0-17.2,7.7-17.2,17.2s7.7,17.2,17.2,17.2,17.2-7.7,17.2-17.2-7.7-17.2-17.2-17.2Z"/>
          <path class="cls-13" d="M179.8,253.4c-8.1,0-14.7-6.6-14.7-14.7s6.6-14.7,14.7-14.7,14.7,6.6,14.7,14.7-6.6,14.7-14.7,14.7ZM179.8,226.5c-6.7,0-12.1,5.4-12.1,12.1s5.4,12.1,12.1,12.1,12.1-5.4,12.1-12.1-5.4-12.1-12.1-12.1Z"/>
        </g>
        <g>
          <path class="cls-3" d="M352.7,211.2l1-3.6c.4-1.4,0-2.9-1-3.9l-2.5-2.5-2.5-2.5c-1-1-2.5-1.4-3.9-1l-3.6,1c-1.8.5-3.6-.3-4.5-1.9l-1.8-3.3c-.7-1.3-2-2-3.5-2h-7.1c-1.4,0-2.8.8-3.5,2l-1.8,3.3c-.9,1.6-2.8,2.4-4.5,1.9l-3.6-1c-1.4-.4-2.9,0-3.9,1l-2.5,2.5-2.5,2.5c-1,1-1.4,2.5-1,3.9l1,3.6c.5,1.8-.3,3.6-1.9,4.5l-3.3,1.8c-1.3.7-2,2-2,3.5v7.1c0,1.4.8,2.8,2,3.5l3.3,1.8c1.6.9,2.4,2.8,1.9,4.5l-1,3.6c-.4,1.4,0,2.9,1,3.9l2.5,2.5,2.5,2.5c1,1,2.5,1.4,3.9,1l3.6-1c1.8-.5,3.6.3,4.5,1.9l1.8,3.3c.7,1.3,2,2,3.5,2h7.1c1.4,0,2.8-.8,3.5-2l1.8-3.3c.9-1.6,2.8-2.4,4.5-1.9l3.6,1c1.4.4,2.9,0,3.9-1l2.5-2.5,2.5-2.5c1-1,1.4-2.5,1-3.9l-1-3.6c-.5-1.8.3-3.6,1.9-4.5l3.3-1.8c1.3-.7,2-2,2-3.5v-7.1c0-1.4-.8-2.8-2-3.5l-3.3-1.8c-1.6-.9-2.4-2.8-1.9-4.5Z"/>
          <circle class="cls-13" cx="326.8" cy="224.8" r="9.5"/>
          <path class="cls-13" d="M326.8,243.1c-10.1,0-18.3-8.2-18.3-18.3s8.2-18.3,18.3-18.3,18.3,8.2,18.3,18.3-8.2,18.3-18.3,18.3ZM326.8,207.6c-9.5,0-17.2,7.7-17.2,17.2s7.7,17.2,17.2,17.2,17.2-7.7,17.2-17.2-7.7-17.2-17.2-17.2Z"/>
          <path class="cls-13" d="M326.8,239.5c-8.1,0-14.7-6.6-14.7-14.7s6.6-14.7,14.7-14.7,14.7,6.6,14.7,14.7-6.6,14.7-14.7,14.7ZM326.8,212.7c-6.7,0-12.1,5.4-12.1,12.1s5.4,12.1,12.1,12.1,12.1-5.4,12.1-12.1-5.4-12.1-12.1-12.1Z"/>
        </g>
        <g>
          <path class="cls-5" d="M391.6,285.3s-7.8,52.9-11.4,87.2h9.6s10-50.2,28.3-80.8l-26.5-6.4h0Z"/>
          <path class="cls-5" d="M399.4,275s12.8,41.1,17.3,58c4.6,16.9,8.7,38.8,8.7,38.8h10.5s-6.8-76.2-12.3-97.7l-24.2.9h0Z"/>
          <path class="cls-2" d="M340.5,245.8s-6.7.4-9.1.2c-2.4-.3-2.7,2.4-1.1,3.8,1.6,1.4,10.1,1.5,10.1,1.5v-5.4h.1Z"/>
          <path class="cls-7" d="M397.2,232.2s-30.8,11-57.8,13.1v4.5l59.5-6.7-1.7-11h0Z"/>
          <path class="cls-13" d="M341.7,246.9s-2.3.5-6.5.7-6.6-1.2-7,.5,2.6,4.8,5.3,5c2.8.2,7.9-.2,7.9-.2l.3-6.1h0Z"/>
          <path class="cls-13" d="M384.3,207.5l-5.4,10.2h3.1s1.9,6.5,3,9,7.3-2.2,9.4-2.6c2.1-.3,3.9,3.6,3.9,3.6,0,0,4.3-1.2,7.6-4.1l-4.4-16h-17.3,0Z"/>
          <path class="cls-6" d="M383.8,208.6s-6.1,0-6.1-4.3,2.8-7.1,7.6-6.3c4.9.8,10.7,1.5,14.3,1.8,3.5.3,4.6,5.7,4.9,8.6.3,2.9.3,9.4.8,10.3.4.9-1.5,1.8-2.3.4-.8-1.4-1.8-4.1-1.8-4.1,0,0,1.7-.3,1.3-2.3-.4-2-1.4-3.7-4.2-2.1-2.8,1.6-4.8,2.3-7.1.2-2.4-2.1-4.3-2.4-7.2-2.4l-.2.2Z"/>
          <path class="cls-4" d="M405.4,222.3s7.9,2.5,11,10.3,14,59.1,14,59.1c0,0-5.3,6.8-16.6,3.9-11.3-2.9-19.4-5-27.1-2.9,0,0,5.9-45.6,6.6-51.3.6-5.3,3.9-14.6,3.9-14.6l8.3-4.5h0Z"/>
          <path class="cls-4" d="M405.9,231s-28.2,13.3-66.9,15.7v7.2s38.2,3.1,70-7.2l-3.1-15.7Z"/>
          <path class="cls-4" d="M391.4,255.5c3-.9,10.2-3.5,17.5-8.8,0,0-7,2.2-16.9,4.2-.2,1.4-.4,3-.6,4.6Z"/>
        </g>
        <g>
          <path class="cls-13" d="M325.9,324.3h-.4c-.7-.2-1.1-.9-.9-1.6.2-.8.4-1.7.6-2.5.1-.7.9-1.2,1.6-1,.7.1,1.2.8,1,1.6-.2.9-.4,1.8-.6,2.7-.2.6-.7,1-1.3,1v-.2Z"/>
          <path class="cls-13" d="M297.7,350.9c-.6,0-1.2-.4-1.3-1.1-.2-.7.3-1.4,1-1.6,1.6-.3,3.2-.8,4.7-1.3.7-.2,1.5.1,1.7.8.2.7-.1,1.5-.8,1.7-1.6.6-3.4,1.1-5.1,1.4h-.3,0ZM307.2,347.4c-.5,0-.9-.3-1.2-.7-.3-.7,0-1.5.6-1.8,1.4-.8,2.8-1.6,4.2-2.6.6-.4,1.4-.3,1.9.3.4.6.3,1.4-.3,1.9-1.4,1-2.9,1.9-4.5,2.8-.2.1-.4.2-.6.2h-.1ZM315.5,341.5c-.4,0-.7-.1-1-.4-.5-.5-.5-1.4,0-1.9,1.2-1.1,2.3-2.3,3.3-3.6.5-.6,1.3-.7,1.9-.2s.7,1.3.2,1.9c-1.1,1.4-2.3,2.7-3.6,3.9-.3.2-.6.4-.9.4h.1ZM321.9,333.7c-.2,0-.5,0-.7-.2-.6-.4-.8-1.2-.5-1.8.8-1.4,1.6-2.9,2.2-4.4.3-.7,1.1-1,1.8-.7.7.3,1,1.1.7,1.8-.7,1.6-1.5,3.2-2.4,4.7-.3.4-.7.6-1.1.6Z"/>
          <path class="cls-13" d="M289.9,351.7c-.7,0-1.3-.6-1.3-1.3s.6-1.3,1.3-1.3h2.6c.7,0,1.4.5,1.4,1.2s-.5,1.4-1.2,1.4h-2.8Z"/>
          <polygon class="cls-13" points="322.3 321 327.2 314.7 330.2 322.1 322.3 321"/>
        </g>
        <g>
          <path class="cls-10" d="M331.5,173.4v.4c0,.7-.6,1.4-1.3,1.4s-1.7,0-2.6.2c-.7,0-1.4-.5-1.5-1.2,0-.7.5-1.4,1.2-1.5.9,0,1.8-.2,2.8-.2s1.1.4,1.3.9h.1Z"/>
          <path class="cls-10" d="M365.2,192.6c.2.6,0,1.2-.6,1.6-.6.4-1.5.1-1.8-.5-.8-1.4-1.7-2.8-2.7-4.1-.4-.6-.3-1.4.3-1.9.6-.4,1.4-.3,1.9.3,1.1,1.4,2,2.9,2.9,4.4,0,0,0,.2.1.3h0ZM359.1,184.5c.1.5,0,1-.3,1.3-.5.5-1.4.5-1.9,0-1.1-1.2-2.4-2.2-3.7-3.2-.6-.4-.7-1.3-.3-1.9.4-.6,1.3-.7,1.9-.3,1.4,1.1,2.7,2.2,4,3.5.2.2.3.3.3.5h0ZM351,178.3c.1.3,0,.7-.1,1.1-.4.6-1.2.9-1.8.5-1.4-.8-2.9-1.5-4.4-2.1-.7-.3-1-1.1-.7-1.7.3-.7,1.1-1,1.7-.7,1.6.6,3.2,1.4,4.7,2.3.3.2.5.5.6.8v-.2ZM341.6,174.5v.7c-.2.7-.9,1.2-1.6,1-1.6-.4-3.2-.7-4.8-.9-.7,0-1.3-.7-1.2-1.5,0-.7.7-1.3,1.5-1.2,1.7.2,3.5.5,5.2.9.5.1.8.5,1,.9h-.1Z"/>
          <path class="cls-10" d="M368.3,199.7c.2.7-.2,1.5-.9,1.7-.7.2-1.5-.2-1.7-.9-.3-.8-.5-1.6-.8-2.4-.3-.7,0-1.5.8-1.7.7-.3,1.5,0,1.7.8.3.9.6,1.7.9,2.6h0Z"/>
          <polygon class="cls-10" points="329.4 177.9 321.9 175.1 328.1 170 329.4 177.9"/>
        </g>
        <g>
          <path class="cls-13" d="M187.9,286.4v-.4c0-.7-.6-1.4-1.3-1.4s-1.7,0-2.6-.2c-.7,0-1.4.5-1.5,1.2,0,.7.5,1.4,1.2,1.5.9,0,1.8.2,2.8.2s1.1-.4,1.3-.9h.1Z"/>
          <path class="cls-13" d="M221.4,267.5c-.9,1.5-1.8,3-2.9,4.4-.4.6-1.3.7-1.9.3-.6-.4-.7-1.3-.3-1.9,1-1.3,1.9-2.7,2.7-4.1.4-.6,1.2-.9,1.8-.5.6.3.8,1,.6,1.6,0,0,0,.2-.1.3h0ZM215.1,275.9c-1.2,1.2-2.6,2.4-4,3.5-.6.4-1.4.3-1.9-.3-.4-.6-.3-1.4.3-1.9,1.3-1,2.5-2.1,3.7-3.2.5-.5,1.4-.5,1.9,0s.5.9.3,1.3c0,.2-.2.4-.3.5h0ZM206.8,282.3c-1.5.9-3.1,1.6-4.7,2.3-.7.3-1.5,0-1.7-.7-.3-.7,0-1.5.7-1.7,1.5-.6,3-1.3,4.4-2.1.6-.4,1.5-.1,1.8.5.2.3.2.7.1,1.1,0,.3-.3.6-.6.8v-.2ZM197,286.2c-1.7.4-3.5.7-5.2.9-.7,0-1.4-.5-1.5-1.2,0-.7.5-1.4,1.2-1.5,1.6-.2,3.2-.5,4.8-.9.7-.2,1.4.3,1.6,1v.7c-.1.4-.5.8-1,.9h0Z"/>
          <path class="cls-13" d="M224.6,260.1c.2-.7-.2-1.5-.9-1.7s-1.5.2-1.7.9c-.3.8-.5,1.6-.8,2.4-.3.7,0,1.5.8,1.7.7.3,1.5,0,1.7-.8.3-.9.6-1.7.9-2.6h0Z"/>
          <polygon class="cls-13" points="185.7 281.9 178.3 284.7 184.4 289.8 185.7 281.9"/>
        </g>
        <g>
          <path class="cls-7" d="M195,172.9h.4c.7.2,1.1,1,.9,1.7-.3.8-.5,1.7-.7,2.5-.2.7-.9,1.2-1.6,1-.7-.2-1.2-.9-1-1.6.2-.9.5-1.8.7-2.7.2-.6.7-1,1.3-.9h0Z"/>
          <path class="cls-7" d="M224.1,147.4c.6,0,1.2.5,1.3,1.1.1.7-.4,1.4-1.1,1.5-1.6.3-3.2.7-4.8,1.2-.7.2-1.5-.2-1.7-.9s.2-1.5.9-1.7c1.7-.5,3.4-1,5.1-1.2h.3ZM214.5,150.5c.5,0,.9.3,1.2.8.3.7,0,1.5-.6,1.8-1.5.7-2.9,1.5-4.3,2.4-.6.4-1.4.2-1.9-.4-.4-.6-.2-1.4.4-1.9,1.5-1,3-1.8,4.6-2.6.2,0,.4-.1.6-.1ZM206,156c.4,0,.7.2,1,.5.5.6.4,1.4-.1,1.9-1.2,1.1-2.4,2.2-3.5,3.5-.5.6-1.3.6-1.9.1-.6-.5-.6-1.3-.1-1.9,1.1-1.3,2.4-2.6,3.7-3.7.3-.2.6-.3.9-.3h0ZM199.3,163.7c.2,0,.5,0,.7.2.6.4.8,1.2.4,1.9-.9,1.4-1.7,2.8-2.4,4.3-.3.7-1.1,1-1.8.6-.7-.3-.9-1.1-.6-1.8.8-1.6,1.6-3.1,2.6-4.6.3-.4.7-.6,1.2-.6h0Z"/>
          <path class="cls-7" d="M231.9,146.9c.7,0,1.3.6,1.3,1.4s-.6,1.3-1.4,1.3h-2.6c-.7,0-1.4-.6-1.4-1.3s.6-1.4,1.3-1.4h2.8,0Z"/>
          <polygon class="cls-7" points="198.4 176.3 193.3 182.5 190.5 175 198.4 176.3"/>
        </g>
        <g>
          <path class="cls-12" d="M305.2,107.4s-23.7,0-23.7,18.8,14.3,13.7,14.3,33.1h18.8c0-19.4,14.3-14.2,14.3-33.1s-23.7-18.8-23.7-18.8h0Z"/>
          <path class="cls-13" d="M309.8,160.7h-2.1v-17.5h-5v17.5h-2.1v-17.5h-2c-2.9,0-4.9-5.3-4.9-8.8s.2-2.1.6-2.8c.5-.9,1.4-1.4,2.5-1.4,5.2,0,5.8,4.8,5.9,10.9h5c0-6,.7-10.9,5.9-10.9s3.1.3,3.1,4.2-.5,3.8-1.3,5.5c-1,2.1-2.3,3.3-3.6,3.3h-2v17.5ZM309.8,141.1h1.9c.9,0,2.8-3.4,2.8-6.7s-.2-2.1-1-2.1c-2.8,0-3.7,2-3.8,8.8h.1ZM296.8,132.3c-.3,0-.5.1-.7.4-.2.4-.3,1-.3,1.7,0,3.3,2,6.7,2.8,6.7h1.9c0-6.8-1-8.8-3.8-8.8h.1Z"/>
          <rect class="cls-1" x="292.9" y="159.4" width="24.5" height="10.6" rx="3.1" ry="3.1"/>
        </g>
        <g>
          <path class="cls-12" d="M64,217.5s-16.9,5.6-12.4,18.9c4.4,13.4,13.4,6.4,17.9,20.1l6.7-2.2,6.7-2.2c-4.5-13.8,6.8-13.5,2.4-26.8s-21.3-7.8-21.3-7.8Z"/>
          <path class="cls-13" d="M79.8,254.2l-1.5.5-4.1-12.4-3.6,1.2,4.1,12.4-1.5.5-4.1-12.4-1.4.5c-2,.7-4.7-2.6-5.6-5.1-.3-.8-.3-1.5-.2-2.1.2-.8.7-1.3,1.4-1.6,3.7-1.2,5.3,2.1,6.7,6.4l3.6-1.2c-1.4-4.3-2.1-7.9,1.6-9.1.5-.2,2.3-.5,3.2,2.2.4,1.2.5,2.8.4,4.2-.2,1.7-.9,2.9-1.8,3.2l-1.4.5,4.1,12.4h.1ZM75.2,240.3l1.4-.5c.6-.2,1.2-3.1.4-5.4-.2-.7-.6-1.4-1.2-1.2-2,.7-2.2,2.3-.6,7.1h0ZM63.9,237.1c-.2,0-.3.2-.4.4,0,.3,0,.8.2,1.3.8,2.3,3,4.3,3.6,4.1l1.4-.5c-1.6-4.8-2.7-6-4.7-5.3h-.1Z"/>
          <rect class="cls-7" x="68.4" y="254.1" width="18.3" height="7.9" rx="2.4" ry="2.4" transform="translate(-77.1 37.4) rotate(-18.3)"/>
        </g>
        <path class="cls-9" d="M124.6,163.8v-.6c0-8.4-6.8-15.3-15.3-15.3s-11.4,3.6-13.8,8.8c-2.6-2.1-6-3.4-9.6-3.4-7.6,0-14,5.6-15.1,12.9-3.7,2.8-6.2,7.2-6.2,12.3,0,8.4,6.8,15.3,15.3,15.3h40.3c8.4,0,15.3-6.8,15.3-15.3s-4.6-12.8-11-14.7h0Z"/>
        <g>
          <polygon class="cls-14" points="148.9 95.1 136.4 123.7 134.7 115.9 148.9 95.1"/>
          <polygon class="cls-13" points="123.8 112.4 148.9 95.1 134.7 115.9 123.8 112.4"/>
          <polygon class="cls-13" points="147.4 123.6 137.4 117 148.9 95.1 147.4 123.6"/>
        </g>
        <g>
          <path class="cls-12" d="M125,134.9h-.3c-.5-.2-.8-.7-.6-1.2.4-1.1.8-2.1,1.3-3.2.2-.5.8-.7,1.3-.5s.7.8.5,1.3c-.4,1-.8,2-1.2,3,0,.4-.5.6-.9.6h-.1Z"/>
          <path class="cls-12" d="M170.5,189.9h-.3c-.5-.2-.8-.7-.6-1.2.6-1.7.9-3.6.9-5.5v-.8c0-.5.4-1,.9-1s1,.4,1,.9v.9c0,2.1-.3,4.2-1,6.1-.1.4-.5.6-.9.6h0ZM170.6,178.6c-.4,0-.8-.3-.9-.7-.1-.5-.3-1-.5-1.4-.6-1.5-1.4-2.9-2.4-4.3-.3-.4-.2-1,.2-1.3s1-.2,1.3.2c1.1,1.5,1.9,3,2.6,4.6.2.5.4,1,.6,1.6.2.5-.1,1-.6,1.2h-.3ZM164.4,169.1c-.2,0-.5,0-.7-.3-1.5-1.4-3.2-2.8-5.2-3.9-.4-.3-.6-.9-.3-1.3.3-.4.9-.6,1.3-.3,2,1.2,3.9,2.7,5.5,4.2.4.4.4,1,0,1.3-.2.2-.4.3-.7.3h0ZM154.9,162.8h-.4c-1.3-.6-2.7-1.1-4-1.6-.7-.3-1.3-.5-2-.8-1.5,1-3,1.7-4.7,2.1-.5.1-1,.2-1.4.3-.5,0-1-.3-1.1-.8,0-.5.3-1,.8-1.1.4,0,.8-.1,1.2-.3,1.6-.4,3.1-1.1,4.5-2.1.3-.2.8-.2,1.1,0h0c.7.3,1.5.6,2.2.9,1.3.5,2.7,1.1,4.1,1.7.5.2.7.8.5,1.2-.2.3-.5.6-.9.6h0ZM137.6,162.5h-.2c-2.2-.5-4.5-1.4-6.5-2.8-.4-.3-.5-.9-.2-1.3.3-.4.9-.5,1.3-.2,1.8,1.2,3.8,2.1,5.8,2.5.5.1.8.6.7,1.1,0,.4-.5.8-.9.8h0ZM144.3,158.2c-.2,0-.3,0-.5-.1-1.5-.8-2.7-1.7-3.8-2.7-.6-.5-1.1-1.1-1.6-1.7-.3-.4-.3-1,.1-1.3.4-.3,1-.3,1.3.1.4.5.9,1,1.4,1.5,1,.9,2.1,1.7,3.5,2.5.5.3.6.8.4,1.3-.2.3-.5.5-.8.5h0ZM151.9,156.8c-.2,0-.4,0-.6-.2-.4-.3-.5-.9-.1-1.3,1.3-1.6,2.4-3.5,3.2-5.5.2-.5.7-.7,1.2-.5s.7.7.5,1.2c-.9,2.2-2,4.3-3.5,6-.2.2-.5.4-.7.4h0ZM127.9,156.7c-.3,0-.5-.1-.7-.3-1-1.2-1.8-2.4-2.5-3.8-.4-.8-.7-1.5-1-2.3-.2-.5,0-1,.6-1.2.5-.2,1,0,1.2.6.2.7.5,1.4.9,2.1.6,1.2,1.3,2.3,2.2,3.4.3.4.3,1-.1,1.3-.2.2-.4.2-.6.2ZM136.8,149.9c-.4,0-.7-.2-.9-.6-.6-1.8-1-3.6-1-5.3v-1.7c0-.5.5-.9,1-.8.5,0,.9.5.8,1v1.5c0,1.6.3,3.2.9,4.7s0,1-.6,1.2h-.3.1ZM156.5,146.4h-.1c-.5,0-.9-.5-.8-1.1,0-.7.1-1.5.1-2.2,0-1.5-.2-2.8-.6-4-.2-.5,0-1,.6-1.2.5-.2,1,0,1.2.6.5,1.4.7,3,.7,4.6s0,1.6-.2,2.4c0,.5-.5.8-.9.8h0ZM123.7,146.2c-.5,0-.9-.4-.9-.8,0-.8,0-1.7,0-2.6,0-1.4,0-2.9.4-4.3,0-.5.6-.9,1.1-.8.5,0,.9.6.8,1.1-.2,1.4-.3,2.7-.3,4s0,1.6,0,2.4c0,.5-.3,1-.8,1h-.3ZM137.5,138.8c-.2,0-.3,0-.5-.1-.4-.3-.6-.8-.3-1.3,0-.1.1-.2.2-.3,1.2-1.9,3-3.4,5.3-4.3.5-.2,1,0,1.2.5s0,1-.5,1.2c-1.9.8-3.4,2-4.4,3.6,0,0-.1.2-.2.3-.2.3-.5.5-.8.5h0ZM153.4,135.8c-.2,0-.4,0-.6-.2-1.4-1.3-3.4-2-5.5-2s-.9-.4-.9-1,.4-1,1-.9c2.6,0,5,.9,6.8,2.5.4.3.4.9,0,1.3-.2.2-.4.3-.7.3h-.1Z"/>
          <path class="cls-12" d="M165.9,196.6c-.3,0-.5-.1-.7-.4-.3-.4-.3-1,.1-1.3.8-.6,1.5-1.4,2.1-2.2.3-.4.9-.5,1.3-.2.4.3.5.9.2,1.3-.7.9-1.5,1.8-2.4,2.5-.2.1-.4.2-.6.2h0Z"/>
        </g>
        <g>
          <polygon class="cls-14" points="342.6 133 373.8 151.5 370.3 140.8 342.6 133"/>
          <polygon class="cls-13" points="379.2 133.1 342.6 133 370.3 140.8 379.2 133.1"/>
          <polygon class="cls-13" points="342.6 133 363.6 155.1 368.9 144.3 342.6 133"/>
        </g>
        <path class="cls-13" d="M361.4,224.5c-1.2,0-2.5-.1-3.7-.4-.5-.1-.8-.6-.7-1.1.1-.5.6-.8,1.1-.7,1.4.3,2.7.4,4.1.4s1,.4,1,.9-.4,1-.9,1h-.9ZM353.5,222.3c-.2,0-.3,0-.5-.1-2-1.2-3.8-2.8-5.2-4.6-.3-.4-.2-1,.2-1.3.4-.3,1-.2,1.3.2,1.2,1.6,2.8,3,4.6,4.1.5.3.6.8.4,1.3-.2.3-.5.5-.8.5h0ZM346.4,213.8c-.4,0-.8-.3-.9-.7-.5-1.6-.8-3.3-.8-5.1v-1.8c0-.5.5-.9,1-.8.5,0,.9.5.8,1v1.6c0,1.5.2,3.1.7,4.5.2.5-.1,1-.6,1.2h-.3,0ZM347,202.8h-.4c-.5-.2-.7-.8-.5-1.2.7-1.6,1.6-3,2.6-4.2.4-.5.9-1,1.5-1.4.4-.3,1-.3,1.3,0,.3.4.3,1,0,1.3-.5.4-.9.8-1.3,1.3-.9,1.1-1.7,2.3-2.3,3.7-.2.4-.5.6-.9.6h0ZM354.8,194.9c-.3,0-.7-.2-.8-.5-.2-.5,0-1,.4-1.3,1.9-.9,4.1-1.6,6.5-2.1.5,0,1,.3,1.1.8,0,.5-.3,1-.8,1.1-2.2.4-4.3,1-6,1.9h-.4ZM388.3,193.8c-.5,0-.9-.4-.9-.9s.4-1,.9-1c2.3-.1,4.4-.5,6.3-1,.5-.1,1,.1,1.2.6.1.5-.1,1-.6,1.2-2,.6-4.3.9-6.7,1.1h-.2ZM383.6,193.7h0c-2.2-.1-4.3-.3-6.6-.6-.5,0-.9-.5-.8-1,0-.5.5-.9,1-.8,2.3.2,4.4.5,6.5.6.5,0,.9.5.9,1s-.4.9-.9.9h-.1ZM372.3,192.7h0c-2.1-.2-3.8-.3-5.3-.3h-1.1c-.5,0-1-.4-1-.9s.4-1,.9-1h1.2c1.6,0,3.4,0,5.5.3.5,0,.9.5.9,1s-.5.9-.9.9h-.2ZM399.2,190.9c-.3,0-.7-.2-.8-.5-.2-.5,0-1,.4-1.3,1.3-.7,2.4-1.5,3.4-2.4.5-.5.9-1,1.3-1.5.3-.4.9-.5,1.3-.2s.5.9.2,1.3c-.5.6-1,1.2-1.5,1.7-1.1,1.1-2.4,2-3.8,2.7-.1,0-.3.1-.5.1h0ZM406.4,182.6h-.3c-.5-.2-.7-.7-.6-1.2.6-1.7.9-3.6.9-5.5s0-.4,0-.6c0-.5.4-1,.9-1s1,.4,1,.9v.7c0,2.1-.4,4.2-1,6.2-.1.4-.5.6-.9.6h0ZM381.4,177.1h-.4c-2.3,0-4.5-1.2-5.8-3-.3-.4-.2-1,.2-1.3.4-.3,1-.2,1.3.2,1,1.3,2.6,2.1,4.3,2.2h.6c.5,0,1,.4,1,.9s-.4,1-.9,1h-.4,0ZM386.3,175.7c-.3,0-.6-.2-.8-.5-.3-.5-.1-1,.3-1.3.6-.4,1.3-.8,1.9-1.3,1-.8,1.8-1.8,2.6-2.9.3-.4.9-.5,1.3-.2s.5.9.2,1.3c-.8,1.2-1.8,2.3-2.9,3.2-.7.6-1.4,1.1-2.2,1.5-.1,0-.3.1-.5.1h.1ZM406.6,171.5c-.4,0-.8-.3-.9-.7-.6-2.1-1.6-3.9-2.9-5.4-.3-.4-.3-1,.1-1.3s1-.3,1.3.1c1.5,1.7,2.6,3.8,3.3,6.1.2.5-.1,1-.6,1.2h-.3ZM375.2,170h-.2c-.5-.1-.8-.6-.7-1.1.5-2.1,1.8-3.8,2.8-4.9.3-.4.7-.7,1.1-1s1-.3,1.3,0c.3.4.3,1,0,1.3s-.6.6-.9.9c-1.2,1.3-2,2.7-2.4,4-.1.4-.5.7-.9.7h0ZM393.1,167h-.3c-.5-.2-.8-.7-.6-1.2.6-1.7.9-3.4.9-5.2s0-.2,0-.4c-.2-.2-.3-.5-.3-.8,0-.5.6-.9,1.1-.8,2.4.4,4.6,1.2,6.5,2.4.4.3.6.9.3,1.3-.3.4-.9.6-1.3.3-1.4-.8-2.8-1.4-4.4-1.8,0,1.9-.3,3.8-1,5.7-.1.4-.5.6-.9.6h0ZM382.7,162c-.4,0-.7-.2-.9-.5-.2-.5,0-1,.4-1.3,2.1-1,4.3-1.6,6.7-1.8.5,0,1,.3,1,.9s-.3,1-.9,1c-2.1.2-4.1.7-6,1.6h-.4,0ZM393,155.9c-.4,0-.7-.2-.9-.6-.7-1.9-1.9-3.7-3.3-5.2-.4-.4-.3-1,0-1.3.4-.4,1-.3,1.3,0,1.6,1.7,2.9,3.7,3.7,5.8.2.5,0,1-.5,1.2h-.3ZM385.8,147.5c-.2,0-.3,0-.5-.1-1.8-1.1-3.8-1.8-5.8-2-.5,0-.9-.5-.8-1.1,0-.5.5-.9,1.1-.8,2.3.3,4.5,1.1,6.6,2.3.4.3.6.8.3,1.3-.2.3-.5.5-.8.5h-.1Z"/>
      </g>
    </g>
  </g>
</svg>