<?xml version="1.0" encoding="UTF-8"?>
<svg id="Layer_1" data-name="Layer 1" xmlns="http://www.w3.org/2000/svg" version="1.1" viewBox="0 0 1920 1080">
  <defs>
    <style>
      .cls-1 {
        opacity: .5;
      }

      .cls-2 {
        opacity: .4;
      }

      .cls-2, .cls-3, .cls-4 {
        fill: #69bf89;
        stroke-width: 0px;
      }

      .cls-3 {
        opacity: .2;
      }

      .cls-4 {
        opacity: .6;
      }
    </style>
  </defs>
  <g class="cls-1">
    <path class="cls-4" d="M0,1080s62.5-261.5,519.5-292.7c457-31.1,426-55.9,599-147.5,173-91.6,530.9,59.5,622.4,0,91.6-59.5,179.1-106,179.1-260.5v700.6H0Z"/>
    <path class="cls-2" d="M0,1080s62.5-321.8,519.5-360.1c457-38.3,426-68.8,599-181.5,173-112.7,530.9,73.3,622.4,0,91.6-73.3,179.1-130.5,179.1-320.5v862.1H0Z"/>
    <path class="cls-3" d="M0,1080s62.5-403.1,519.5-451.1c457-48,426-86.1,599-227.3,173-141.2,530.9,91.8,622.4,0,91.6-91.8,179.1-163.4,179.1-401.5v1080H0Z"/>
  </g>
</svg>