<?xml version="1.0" encoding="UTF-8"?>
<svg id="Layer_1" data-name="Layer 1" xmlns="http://www.w3.org/2000/svg" version="1.1" viewBox="0 0 1000 840">
  <defs>
    <style>
      .cls-1 {
        fill: #ff7d7d;
      }

      .cls-1, .cls-2, .cls-3, .cls-4, .cls-5, .cls-6, .cls-7, .cls-8, .cls-9 {
        stroke-width: 0px;
      }

      .cls-2 {
        fill: #007ceb;
      }

      .cls-3 {
        fill: #fcfcfc;
      }

      .cls-4, .cls-5 {
        fill: #213041;
      }

      .cls-5 {
        isolation: isolate;
        opacity: .5;
      }

      .cls-10 {
        stroke: #ff7d7d;
      }

      .cls-10, .cls-11, .cls-12, .cls-13, .cls-14, .cls-15 {
        fill: none;
        stroke-linecap: round;
        stroke-linejoin: round;
      }

      .cls-10, .cls-12, .cls-14, .cls-15 {
        stroke-width: 2.5px;
      }

      .cls-11 {
        stroke: #642c2c;
      }

      .cls-11, .cls-13 {
        stroke-width: 3.9px;
      }

      .cls-12 {
        stroke: #fcfcfc;
      }

      .cls-13 {
        stroke: #213041;
      }

      .cls-14 {
        stroke: #007ceb;
      }

      .cls-6 {
        fill: #8cc0ff;
      }

      .cls-7 {
        fill: #642c2c;
      }

      .cls-8 {
        fill: #00bf86;
      }

      .cls-9 {
        fill: #f69696;
      }

      .cls-15 {
        stroke: #8cc0ff;
      }
    </style>
  </defs>
  <ellipse class="cls-5" cx="835.3" cy="749.7" rx="104.4" ry="12.3"/>
  <line class="cls-13" x1="40.3" y1="721.6" x2="932.9" y2="721.6"/>
  <g>
    <path class="cls-3" d="M731.3,115.6l-.3,1.5-11.8,79.2-8.5-1.3,11.9-79.7v-1c1.7-10.4-.9-20.8-7.2-29.2-6.4-8.5-15.5-14-25.9-15.4-14.7-2.2-28.8,4.3-37.2,15.6-3.7.8-7.6,2-12.1,3.8,8.5-19.1,29-30.9,50.4-27.8,12.7,1.8,23.9,8.5,31.6,18.8,7.6,10.3,10.8,23,8.9,35.7v-.3Z"/>
    <polygon class="cls-9" points="697.6 313.2 705.2 238.4 627.2 253.6 616.8 316.4 649.3 345 697.6 313.2"/>
    <path class="cls-4" d="M911.9,569.1c-1.8-6.7-3.3-13.1-4.7-18.8,17-2.2,27.7-2.2,29.9,5h0c2,7-15.4,11.7-25.2,13.7h0Z"/>
    <path class="cls-9" d="M473.7,577.6l-16.6,86.8c-14.2,12.3-32.7,19.6-52.5,19.6s-1.4,0-2,0c-36.8-.9-68.4-26.9-76.4-62.9l-57.8-261.2s-19.9-26.3-14-59.1l-15.8-20.1-10.9-4.8c-2.7-1.1-4.2-3.8-4.2-6.5s.3-2.4.9-3.6c1.8-3,5.3-4.3,8.6-3.2l11.3,4.1,20.8,20.2-13.5-34.1-11.1-11.3c-3.7-3.8-3.8-9.9,0-13.9l7.9-8.3c4.4-4.6,11.7-5.1,16.6-.9l13.3,11.2,16.5,39.9-7.6-41.8-13.5-17.4c-1.3-1.5-1.8-3.4-1.8-5.3s1.3-5.3,3.6-7c3.8-2.8,9.1-1.9,11.9,1.8l17,22.6,11.7,51,6-35.2c.6-3.8,3.9-6.5,7.8-6.5s.5,0,.9,0c4.2.5,7.2,4.2,7,8.4l-7.5,100.5,56.3,141,26,65.2h0l60.7,31v-.3Z"/>
    <path class="cls-10" d="M307.2,279.4s-28.6,35.8-16.5,66.5"/>
    <path class="cls-4" d="M695.9,244.3l-68.7,9.3-5.8,34.8c53.6,6.4,74.6-42.9,74.6-44.1h0Z"/>
    <path class="cls-3" d="M914.5,519.7c4.3-47.8-28.5-61.8-28.5-61.8l-9.5-42.3c-7.1-31.5-30.5-56.9-61.2-66.6l-92.4-29-23.6-24.1-50.1,31.8-30-27.3-27.2,24.9-68.5,18.9c-42.4,11.7-78.7,39.4-101.1,77.3l-35.7,60.1,26,65.2h0l60.7,31-16.6,86.8-10.9,57.1h332.4l27.1-106.7-13.3-53.9c25.7,6.4,68-3.2,94.7-7.2,7.6-1.1,14.5-2.2,20.5-3,17-2.2,27.7-2.2,29.9,5-.1-1.1-3.6-20.7-22.5-35.7v-.3Z"/>
    <path class="cls-8" d="M656.2,382.3l16.5-23.9-15.1-18.7c-5.7,2.5-11.7,2.5-18,0l-15.4,14,9.4,28.5-64.4,261.2,30.6,47.3,72.8-52.2-16.5-256.2h.1Z"/>
    <polygon class="cls-4" points="785.8 692.2 629.2 621.1 742.9 721.3 778.4 721.3 785.8 692.2"/>
    <path class="cls-4" d="M633.8,382.3s9.4,3.3,22.4,0l.4,5.2s-25.3,13.5-33.5,38.4l10.8-43.7h0Z"/>
    <path class="cls-1" d="M413,546.6l15.4,40.3c1.5,3.9,7.4,2.4,6.7-1.8l-4.1-29.4-18-9.1h0Z"/>
    <path class="cls-15" d="M494,444.5s-10.5-39.8-8.9-64.4"/>
    <line class="cls-15" x1="771.2" y1="456.3" x2="789.3" y2="412.3"/>
    <path class="cls-15" d="M764.7,453.6s-8-33.9-7.5-49.4"/>
    <path class="cls-15" d="M685.5,489.1h71s1.1,70.4-42.4,70.4-28.6-70.4-28.6-70.4Z"/>
    <g>
      <polygon class="cls-6" points="561.6 549 537.4 436.6 582.7 410 587 417.5 547.1 440.8 570 547.3 561.6 549"/>
      <polygon class="cls-2" points="555.5 520.8 564.2 520.1 557.7 489.7 550.8 498.7 555.5 520.8"/>
    </g>
    <path class="cls-2" d="M609.3,643.2c0,10.7-74.1,10.7-74.1,0l-14.7-128.3c0-7.1,103.6-7.1,103.6,0l-14.7,128.3h0Z"/>
    <path class="cls-4" d="M531.9,614.3l21.6,6.4c2.8.8,5.7,1.1,8.5,1l12.5-.6,35.6,15,7.5-65.6-43.6-30-40-3.8v3.6c0,3.7,2.7,6.9,6.2,7.5l12.1,2.3,9.9,14.2-35.5,4.7,5.2,45.4h0Z"/>
    <path class="cls-9" d="M905.5,725.7l-1,1c-28.7,27.1-72.6,30.7-105.3,8.6l-20.6-13.9-149.2-100.4c-31,.8-53.9-8.9-53.9-8.9l-27.3,2.4-15.4-2.5c-1.3-.3-2.4-.9-3.2-1.8s-1.3-2-1.4-3.4c-.1-3.2,2.5-5.8,5.8-5.6l15.8,1.1,21.7-6.5-26.7-3.2h-22c-1.4,0-2.7-.5-3.7-1.4-1-.9-1.8-2-2-3.4-.6-3.3,1.8-6.4,5.1-6.7l22.4-2.5,24.5-1.7-24.4-3.8-21.2,3.6h-1.1c-3.2,0-6-2.2-6.6-5.3-.8-3.4,1.3-7,4.7-8l24.5-7.4,40.3,1.7-15.2-11.3-30.5-3.9c-3.6-.5-6.1-3.4-6.1-7s0-.6,0-.9c.4-3.4,3.3-6,6.7-6.1l31.5-1.1c4.8-.1,9.5,1.1,13.6,3.7l62,39.1,158.6,44.2-13.3-53.9c25.7,6.4,68-3.2,94.7-7.2,7.6-1.1,14.5-2.2,20.5-3,1.4,5.6,3,11.9,4.7,18.8,5.6,22.1,12.5,48.9,18.2,71.8,7.8,30.5-1.7,62.9-24.8,84.8h-.3Z"/>
    <path class="cls-1" d="M841.5,624.6l-36.1-10-6.4-25.7s26.6,8.9,48,23.4c6.5,4.3,1.9,14.4-5.6,12.3h0Z"/>
    <path class="cls-1" d="M907.2,550.4c-6.1.8-12.8,1.9-20.5,3-26.7,4.1-68.9,13.6-94.7,7.2l3.3,13.5c40.3,9.1,89.8-19.4,112.2-22.2-.1-.5-.3-1-.4-1.5Z"/>
    <line class="cls-15" x1="767.6" y1="464.4" x2="789.3" y2="550.4"/>
    <polyline class="cls-15" points="644 335.9 615 362.4 594 329.7"/>
    <polyline class="cls-15" points="654.4 335.8 679 366.3 722.2 324.9"/>
    <line class="cls-10" x1="272.4" y1="289.6" x2="305.2" y2="268.9"/>
    <path class="cls-4" d="M343.1,363.6c-22,12.1-46.3,19.1-71.3,20.8-1.7,0-3-1-3.6-2.5l-2.4-8.5c-.6-2.2.8-4.3,2.8-4.4,24.1-1.8,47.4-8.6,68.7-20.1,1.9-1,4.2,0,4.8,2.3l2.4,8.5c.5,1.7-.1,3.3-1.5,4.1h0Z"/>
    <path class="cls-3" d="M301.9,381.1c-.5,0-1.1-.4-1.3-.9-.3-.6.3-1.4.9-1.7l8-2.3c.8-.3,1.3-.6,1.7-1.3s.4-1.4.3-2l-2.3-7.6c-.4-1.4-1.9-2.3-3.4-1.9l-8.6,2.4c-.6.3-1.4-.3-1.7-.9-.3-.6.3-1.4.9-1.7l8.6-2.4c2.8-.8,5.7.8,6.6,3.6l2.3,7.6c.4,1.4.3,2.8-.5,4.1-.6,1.3-1.8,2.2-3.2,2.5l-8,2.3h-.4.1Z"/>
    <path class="cls-3" d="M302.1,370.2l5.4-1.5c.4-.1.8.2.9.5l.4,1.3c.1.4-.2.8-.5.9l-5.4,1.5c-.7.2-1.5-.2-1.7-1h0c-.2-.7.2-1.5,1-1.7h0Z"/>
    <line class="cls-15" x1="494" y1="464.4" x2="481.3" y2="509"/>
    <path class="cls-9" d="M596.9,140.5l-3.7,55.1c-13.7,46.6,2.4,73.7,43.8,77.3,41.4,3.6,68-34.6,68-34.6l4.8-73.2-23.8-32.1-89.3,7.6h.1Z"/>
    <circle class="cls-1" cx="661.4" cy="219.8" r="10.4"/>
    <path class="cls-7" d="M723.4,187.5c6.5,26.2-18,50.7-18,50.7l-1.3-29.7s-20.5-33-17.7-57.6c-41.4,12.1-57.2-4.8-57.2-4.8-28.2,17.7-83.4-.4-76.1-47.1,7.2-46.6,68.9-37.9,83.4-8.5,1.3-.6,2.5-1.1,3.8-1.5,4.4-1.8,8.4-2.9,12.1-3.8,18.3-3.8,27.6,3.6,30.5,12.2,27.3-4.4,33,8.5,35.8,18.2,1.4-.1,2.7-.3,4.1-.1l-11.9,79.7,8.5,1.3,11.8-79.2c16.9,6.7,26.4,32.3-7.6,70.5h-.1Z"/>
    <path class="cls-4" d="M723.4,167.7l-4.3,28.6-8.5-1.3,4.7-31.1c-.6-.1-1.3-.4-1.9-.5-9.1-2-18.3.5-25.7,6.1,4.4,19.9,16.3,39,16.3,39l1.1,29h.9c4.2-4.4,23-26.6,17.3-49.8,3.3-3.8,6.2-7.5,8.9-10.9-2.4-3.6-5.3-6.6-8.8-8.9h0Z"/>
    <path class="cls-6" d="M715.8,161l-5.1,34.1,8.5,1.3,4.6-30.5c-2.4-2-5.1-3.7-8-4.8Z"/>
    <path class="cls-3" d="M698.9,238.7l-16.9,10.7-8.5,5.3-4.2,2.7c-1.5,1-3.3,1.9-5.2,2.4-1.8.6-3.7,1-5.6,1.3-1,0-1.9.1-2.9,0h-2.5l-10-.3-20.1-.4c-2.5,0-4.6-2.2-4.6-4.7s2.2-4.6,4.7-4.6h.3l19.9,1.7,9.9.9,2.5.3h2c1.4,0,2.8-.3,4.2-.6s2.7-.9,3.9-1.5l4.4-2.4,8.8-4.7,17.7-9.5c.9-.5,2.2-.1,2.7.8.5.9.1,2-.6,2.5v.3Z"/>
    <ellipse class="cls-3" cx="710.6" cy="211.6" rx="37.6" ry="32.9" transform="translate(349.1 858.9) rotate(-77.4)"/>
    <circle class="cls-4" cx="612.2" cy="187.2" r="4.7"/>
    <circle class="cls-4" cx="658.6" cy="191.9" r="4.7"/>
    <path class="cls-4" d="M632.4,182.3c1.5,3.9,2.5,8.3,2.9,12.6v1.7c0,.6,0,1.3-.3,1.8-.3,1.1-.9,2.3-1.7,3.3-.8,1-1.9,1.8-2.8,2.3l-2.7,1.8-2.7,1.8c-.5.4-.8.9-.9,1.4,0,.5,0,1.1.4,1.5.4.4.6.6,1.3.6l12.5,2c1.4.3,2.4,1.7,2.2,3s-1.7,2.4-3,2.2h-.3l-12.3-3c-1.5-.3-3-1.3-3.8-2.7-.9-1.4-1.1-3-.8-4.6.4-1.5,1.4-2.9,2.7-3.7l2.8-1.5,2.8-1.5c1-.5,1.7-.9,2.3-1.5s1-1.4,1.4-2.2c.1-.4.3-.9.3-1.3v-1.4c0-4.1-.8-8.3-1.9-12.2,0-.4,0-.8.5-.8s.6,0,.8.4h.4Z"/>
    <path class="cls-4" d="M627.2,226.4c1.9.3,4.1.3,6.1.1,2,0,4.1-.4,6.1-.9,2-.4,3.9-1,5.7-1.9,1.9-.8,3.6-1.9,5.1-3h0c1-.8,2.3-.5,3,.4.6,1,.5,2.3-.5,3h0c-1.9,1.3-3.9,2.5-6.1,3.3-2.2.9-4.3,1.5-6.6,1.9s-4.4.6-6.7.6-4.4,0-6.7-.5c-.9-.1-1.5-1-1.4-1.9.1-.9,1-1.5,1.9-1.4h0v.3Z"/>
    <path class="cls-11" d="M604.2,175.2s9.1-7.5,18,.8"/>
    <path class="cls-11" d="M650.1,179s9.1-7.5,18,.8"/>
  </g>
  <path class="cls-6" d="M502,292.2c-19.6,2-22.7,5.3-24.9,24.9,0,.8-1.1.8-1.1,0-2-19.6-5.3-22.7-24.9-24.9-.8,0-.8-1.1,0-1.1,19.6-2,22.7-5.3,24.9-24.9,0-.8,1.1-.8,1.1,0,2,19.6,5.3,22.7,24.9,24.9.8,0,.8,1.1,0,1.1Z"/>
  <path class="cls-6" d="M146.4,219c-19.6,2-22.7,5.3-24.9,24.9,0,.8-1.1.8-1.1,0-2-19.6-5.3-22.7-24.9-24.9-.8,0-.8-1.1,0-1.1,19.6-2,22.7-5.3,24.9-24.9,0-.8,1.1-.8,1.1,0,2,19.6,5.3,22.7,24.9,24.9.8,0,.8,1.1,0,1.1Z"/>
  <path class="cls-6" d="M867.9,274.2c-33,3.6-38.6,9-42.1,42.1s-1.9,1.1-2,0c-3.6-33-9-38.6-42.1-42.1-1.1-.1-1.1-1.9,0-2,33-3.6,38.6-9,42.1-42.1.1-1.1,1.9-1.1,2,0,3.6,33,9,38.6,42.1,42.1,1.1.1,1.1,1.9,0,2Z"/>
  <polyline class="cls-10" points="250.2 226.2 265.8 240 280.9 284.1"/>
  <g>
    <ellipse class="cls-4" cx="297.2" cy="808.6" rx="131.5" ry="28.3"/>
    <path class="cls-6" d="M515.2,735.9H184.4c-11.7,0-21.7-8.6-23.4-20.2l-27.6-189.3c-1-6.9,4.3-13.1,11.3-13.1h331.9c11.2,0,20.7,8.3,22.4,19.3l27.7,190.2c1,6.9-4.3,13.1-11.3,13.1h-.1Z"/>
    <polygon class="cls-4" points="351.1 636.5 354.3 735.9 301.7 735.9 351.1 636.5"/>
    <path class="cls-14" d="M144,521.7h329c8.8,0,16.3,6.5,17.5,15.1l27.1,185.8"/>
    <polygon class="cls-3" points="330 808.6 265.6 808.6 286.7 636.5 351.1 636.5 330 808.6"/>
    <line class="cls-15" x1="342.4" y1="641.3" x2="321.1" y2="801.9"/>
  </g>
  <g>
    <g>
      <ellipse class="cls-3" cx="389.6" cy="99" rx="137.9" ry="95.9"/>
      <path class="cls-3" d="M475,147c.9,2.2,20.7,51.6,66.6,58.8-41.2,16.9-85.5-10.2-99.7-37.4l33.2-21.5h0Z"/>
    </g>
    <g>
      <path class="cls-8" d="M353.6,70l-8.5,48.3h-9.8l3.7-20.7h-20.6l-3.7,20.7h-9.8l8.6-48.3h9.7l-3.6,19.9h20.7l3.6-19.9h9.7Z"/>
      <path class="cls-8" d="M389.8,83.3c2.9,2.7,4.3,6.4,4.3,10.9s0,2.8-.4,3.9c-.3,1.4-.6,2.5-.9,3.6h-28.1v1.4c0,2.4.8,4.3,2.2,5.6,1.4,1.4,3.3,2,5.6,2s3.6-.4,5-1.3c1.4-.9,2.5-2,3.4-3.3h10.4c-1.7,3.7-4.3,6.7-7.9,9.1-3.6,2.4-7.6,3.6-12.2,3.6s-8.8-1.4-11.8-4.2c-2.9-2.8-4.4-6.5-4.4-11.3s.1-2.8.4-4.3c.6-3.9,2.2-7.5,4.2-10.4,2.2-3,4.8-5.3,8-6.9,3.2-1.7,6.6-2.4,10.4-2.4s8.8,1.4,11.6,4.1h.3ZM384.2,94.3c0-2.2-.8-3.9-2.2-5.2s-3.3-1.9-5.6-1.9-4.6.8-6.6,2.3c-1.9,1.5-3.3,3.7-4.1,6.4h18.3c0-.8.1-1.3.1-1.7h0Z"/>
      <path class="cls-8" d="M416,67.1l-9,51.2h-9.8l9-51.2h9.8Z"/>
      <path class="cls-8" d="M435.3,67.1l-9,51.2h-9.8l9-51.2h9.8Z"/>
      <path class="cls-8" d="M444.2,116.9c-2.5-1.4-4.4-3.2-5.8-5.7-1.4-2.4-2-5.2-2-8.4s1-8.3,3-11.8,4.8-6.4,8.4-8.5c3.6-2,7.5-3.2,11.9-3.2s6.2.6,8.8,2,4.6,3.3,6,5.7,2.2,5.2,2.2,8.4-1,8.4-3,11.9-5,6.4-8.5,8.4c-3.7,2-7.6,3-11.9,3s-6.2-.6-8.6-2h-.3ZM460.5,108.6c1.9-1.4,3.3-3.2,4.4-5.3,1-2.2,1.7-4.6,1.7-7s-.8-5-2.3-6.4c-1.5-1.5-3.4-2.3-5.8-2.3s-4.4.6-6.2,2-3.3,3.2-4.2,5.3c-1,2.3-1.5,4.6-1.5,7.1s.8,4.8,2.2,6.4,3.3,2.2,5.7,2.2,4.4-.6,6.4-2h-.3Z"/>
    </g>
  </g>
  <g>
    <ellipse class="cls-3" cx="120.8" cy="413.2" rx="120.8" ry="84.5"/>
    <polygon class="cls-3" points="196.1 470.8 229.2 551.3 143.1 484.2 196.1 470.8"/>
    <g>
      <path class="cls-6" d="M68,375.7h105.7c3.8,0,6.9,3.1,6.9,6.9v65.3c0,3.8-3.1,6.9-6.9,6.9h-105.7c-3.8,0-6.9-3.1-6.9-6.9v-65.3c0-3.8,3.1-6.9,6.9-6.9Z"/>
      <path class="cls-2" d="M172.9,384c-.6-.6-1.7-.6-2.2,0l-45.7,45.6c-2.3,2.3-6,2.3-8.1,0l-45.7-45.6c-.6-.6-1.7-.6-2.2,0-.6.6-.6,1.7,0,2.2l32.1,32.1-29.7,26c-.6.5-.8,1.5-.1,2.2.3.4.8.5,1.1.5s.8-.1,1-.4l29.9-26.2,11.3,11.2c1.8,1.8,4.1,2.5,6.4,2.5s4.6-.9,6.4-2.5l11.3-11.2,29.9,26.2c.3.3.6.4,1,.4s.9-.1,1.1-.5c.5-.6.5-1.7-.1-2.2l-29.7-26,32.1-32.1c.6-.6.6-1.7,0-2.2Z"/>
    </g>
    <circle class="cls-9" cx="180.6" cy="381.2" r="17.2"/>
  </g>
  <g>
    <polygon class="cls-12" points="820.1 108.1 935.2 110.5 900.3 147.1 820.1 108.1"/>
    <polygon class="cls-12" points="820.1 108.1 890.8 155.6 854.3 186.3 820.1 108.1"/>
    <polyline class="cls-12" points="900.3 147.1 899.4 184.6 879.2 165.4"/>
  </g>
  <path class="cls-15" d="M922.2,161c42.9,11.2,86.1,62.6,76.4,115.6-8.5,46.5-77.9,66.5-81.2,26-1.3-16.4,18.6-17.8,30.1-14.6,20.8,5.6,36.3,23.8,45.4,43.3,19.2,41.2-14.4,83-53.1,95.6-10.7,3.4-21.5,6.5-32.4,9.1"/>
</svg>