<?xml version="1.0" encoding="UTF-8"?>
<svg id="Layer_1" data-name="Layer 1" xmlns="http://www.w3.org/2000/svg" version="1.1" viewBox="0 0 1000 1000">
  <defs>
    <style>
      .cls-1 {
        fill: #ff7d7d;
      }

      .cls-1, .cls-2, .cls-3, .cls-4, .cls-5, .cls-6, .cls-7, .cls-8, .cls-9 {
        stroke-width: 0px;
      }

      .cls-2 {
        opacity: .5;
      }

      .cls-2, .cls-5 {
        fill: #213041;
      }

      .cls-3 {
        fill: #007ceb;
      }

      .cls-4 {
        fill: #fcfcfc;
      }

      .cls-10, .cls-11, .cls-12, .cls-13, .cls-14, .cls-15, .cls-16 {
        fill: none;
        stroke-linecap: round;
        stroke-linejoin: round;
      }

      .cls-10, .cls-12 {
        stroke-width: 2px;
      }

      .cls-10, .cls-13 {
        stroke: #8cc0ff;
      }

      .cls-11 {
        stroke: #007ceb;
      }

      .cls-11, .cls-13, .cls-15 {
        stroke-width: 2px;
      }

      .cls-12 {
        stroke: #fcfcfc;
      }

      .cls-6 {
        fill: #8cc0ff;
      }

      .cls-14 {
        stroke: #213041;
      }

      .cls-14, .cls-16 {
        stroke-width: 3.1px;
      }

      .cls-7 {
        fill: #642c2c;
      }

      .cls-8 {
        fill: #00bf86;
      }

      .cls-15 {
        stroke: #ff7d7d;
      }

      .cls-9 {
        fill: #f69696;
      }

      .cls-16 {
        stroke: #642c2c;
      }
    </style>
  </defs>
  <ellipse class="cls-2" cx="763.9" cy="759.5" rx="82.2" ry="9.7"/>
  <line class="cls-14" x1="138.2" y1="737.4" x2="840.7" y2="737.4"/>
  <g>
    <path class="cls-4" d="M682,260.5l-.2,1.2-9.3,62.3-6.7-1,9.4-62.7v-.8c1.3-8.2-.7-16.4-5.7-23-5-6.7-12.2-11-20.4-12.1-11.6-1.7-22.7,3.4-29.3,12.3-2.9.6-6,1.6-9.5,3,6.7-15,22.8-24.3,39.7-21.9,10,1.4,18.8,6.7,24.9,14.8,6,8.1,8.5,18.1,7,28.1Z"/>
    <polygon class="cls-9" points="655.5 416 661.5 357.1 600.1 369.1 591.9 418.5 617.5 441 655.5 416"/>
    <path class="cls-5" d="M824.2,617.4c-1.4-5.3-2.6-10.3-3.7-14.8,13.4-1.7,21.8-1.7,23.5,3.9,0,0,0,0,0,0,1.6,5.5-12.1,9.2-19.8,10.8Z"/>
    <path class="cls-9" d="M479.3,624.1l-13.1,68.3c-11.2,9.7-25.7,15.4-41.3,15.4s-1.1,0-1.6,0c-29-.7-53.8-21.2-60.1-49.5l-45.5-205.6s-15.7-20.7-11-46.5l-12.4-15.8-8.6-3.8c-2.1-.9-3.3-3-3.3-5.1s.2-1.9.7-2.8c1.4-2.4,4.2-3.4,6.8-2.5l8.9,3.2,16.4,15.9-10.6-26.8-8.7-8.9c-2.9-3-3-7.8,0-10.9l6.2-6.5c3.5-3.6,9.2-4,13.1-.7l10.5,8.8,13,31.4-6-32.9-10.6-13.7c-1-1.2-1.4-2.7-1.4-4.2,0-2.1,1-4.2,2.8-5.5,3-2.2,7.2-1.5,9.4,1.4l13.4,17.8,9.2,40.1,4.7-27.7c.5-3,3.1-5.1,6.1-5.1s.4,0,.7,0c3.3.4,5.7,3.3,5.5,6.6l-5.9,79.1,44.3,111,20.5,51.3h0l47.8,24.4Z"/>
    <path class="cls-15" d="M348.3,389.4s-22.5,28.2-13,52.3"/>
    <path class="cls-5" d="M654.2,361.8l-54.1,7.3-4.6,27.4c42.2,5,58.7-33.8,58.7-34.7Z"/>
    <path class="cls-4" d="M826.2,578.5c3.4-37.6-22.4-48.6-22.4-48.6l-7.5-33.3c-5.6-24.8-24-44.8-48.2-52.4l-72.7-22.8-18.6-19-39.4,25-23.6-21.5-21.4,19.6-53.9,14.9c-33.4,9.2-61.9,31-79.6,60.8l-28.1,47.3,20.5,51.3h0l47.8,24.4-13.1,68.3-8.6,44.9h261.6l21.3-84-10.5-42.4c20.2,5,53.5-2.5,74.5-5.7,6-.9,11.4-1.7,16.1-2.4,13.4-1.7,21.8-1.7,23.5,3.9-.1-.9-2.8-16.3-17.7-28.1Z"/>
    <path class="cls-8" d="M622.9,470.4l13-18.8-11.9-14.7c-4.5,2-9.2,2-14.2,0l-12.1,11,7.4,22.4-50.7,205.6,24.1,37.2,57.3-41.1-13-201.6Z"/>
    <polygon class="cls-5" points="724.9 714.3 601.7 658.3 691.2 737.2 719.1 737.2 724.9 714.3"/>
    <path class="cls-5" d="M605.3,470.4s7.4,2.6,17.6,0l.3,4.1s-19.9,10.6-26.4,30.2l8.5-34.4Z"/>
    <path class="cls-1" d="M431.5,599.7l12.1,31.7c1.2,3.1,5.8,1.9,5.3-1.4l-3.2-23.1-14.2-7.2Z"/>
    <path class="cls-13" d="M495.3,519.3s-8.3-31.3-7-50.7"/>
    <line class="cls-13" x1="713.4" y1="528.6" x2="727.7" y2="494"/>
    <path class="cls-13" d="M708.3,526.5s-6.3-26.7-5.9-38.9"/>
    <path class="cls-13" d="M646,554.4h55.9s.9,55.4-33.4,55.4-22.5-55.4-22.5-55.4Z"/>
    <g>
      <polygon class="cls-6" points="548.5 601.6 529.4 513.1 565.1 492.2 568.5 498.1 537.1 516.4 555.1 600.2 548.5 601.6"/>
      <polygon class="cls-3" points="543.7 579.4 550.5 578.8 545.4 554.9 540 562 543.7 579.4"/>
    </g>
    <path class="cls-3" d="M586,675.7c0,8.4-58.3,8.4-58.3,0l-11.6-101c0-5.6,81.5-5.6,81.5,0l-11.6,101Z"/>
    <path class="cls-5" d="M525.1,653l17,5c2.2.6,4.5.9,6.7.8l9.8-.5,28,11.8,5.9-51.6-34.3-23.6-31.5-3v2.8c0,2.9,2.1,5.4,4.9,5.9l9.5,1.8,7.8,11.2-27.9,3.7,4.1,35.7Z"/>
    <path class="cls-9" d="M819.1,740.6l-.8.8c-22.6,21.3-57.1,24.2-82.9,6.8l-16.2-10.9-117.4-79c-24.4.6-42.4-7-42.4-7l-21.5,1.9-12.1-2c-1-.2-1.9-.7-2.5-1.4-.6-.7-1-1.6-1.1-2.7-.1-2.5,2-4.6,4.6-4.4l12.4.9,17.1-5.1-21-2.5h-17.3c-1.1,0-2.1-.4-2.9-1.1-.8-.7-1.4-1.6-1.6-2.7-.5-2.6,1.4-5,4-5.3l17.6-2,19.3-1.3-19.2-3-16.7,2.8c-.3,0-.6,0-.9,0-2.5,0-4.7-1.7-5.2-4.2-.6-2.7,1-5.5,3.7-6.3l19.3-5.8,31.7,1.3-12-8.9-24-3.1c-2.8-.4-4.8-2.7-4.8-5.5s0-.5,0-.7c.3-2.7,2.6-4.7,5.3-4.8l24.8-.9c3.8-.1,7.5.9,10.7,2.9l48.8,30.8,124.8,34.8-10.5-42.4c20.2,5,53.5-2.5,74.5-5.7,6-.9,11.4-1.7,16.1-2.4,1.1,4.4,2.4,9.4,3.7,14.8,4.4,17.4,9.8,38.5,14.3,56.5,6.1,24-1.3,49.5-19.5,66.7Z"/>
    <path class="cls-1" d="M768.8,661.1l-28.4-7.9-5-20.2s20.9,7,37.8,18.4c5.1,3.4,1.5,11.3-4.4,9.7Z"/>
    <path class="cls-1" d="M820.5,602.7c-4.8.6-10.1,1.5-16.1,2.4-21,3.2-54.2,10.7-74.5,5.7l2.6,10.6c31.7,7.2,70.7-15.3,88.3-17.5-.1-.4-.2-.8-.3-1.2Z"/>
    <line class="cls-13" x1="710.6" y1="535" x2="727.7" y2="602.7"/>
    <polyline class="cls-13" points="613.3 433.9 590.5 454.7 574 429"/>
    <polyline class="cls-13" points="621.5 433.8 640.9 457.8 674.9 425.2"/>
    <line class="cls-15" x1="320.9" y1="397.4" x2="346.7" y2="381.1"/>
    <path class="cls-5" d="M376.5,455.7c-17.3,9.5-36.4,15-56.1,16.4-1.3,0-2.4-.8-2.8-2l-1.9-6.7c-.5-1.7.6-3.4,2.2-3.5,19-1.4,37.3-6.8,54.1-15.8,1.5-.8,3.3,0,3.8,1.8l1.9,6.7c.4,1.3-.1,2.6-1.2,3.2Z"/>
    <path class="cls-4" d="M344.1,469.4c-.4,0-.9-.3-1-.7-.2-.5.2-1.1.7-1.3l6.3-1.8c.6-.2,1-.5,1.3-1s.3-1.1.2-1.6l-1.8-6c-.3-1.1-1.5-1.8-2.7-1.5l-6.8,1.9c-.5.2-1.1-.2-1.3-.7-.2-.5.2-1.1.7-1.3l6.8-1.9c2.2-.6,4.5.6,5.2,2.8l1.8,6c.3,1.1.2,2.2-.4,3.2-.5,1-1.4,1.7-2.5,2l-6.3,1.8c0,0-.2,0-.3,0Z"/>
    <path class="cls-4" d="M344.4,460.3h4.4c.3,0,.6.3.6.6v1.1c0,.3-.3.6-.6.6h-4.4c-.6,0-1.1-.5-1.1-1.1h0c0-.6.5-1.1,1.1-1.1Z" transform="translate(-113.7 113.3) rotate(-16)"/>
    <line class="cls-13" x1="495.3" y1="535" x2="485.3" y2="570.1"/>
    <path class="cls-9" d="M576.3,280.1l-2.9,43.4c-10.8,36.7,1.9,58,34.5,60.8s53.5-27.2,53.5-27.2l3.8-57.6-18.7-25.3-70.3,6Z"/>
    <circle class="cls-1" cx="627" cy="342.5" r="8.2"/>
    <path class="cls-7" d="M675.8,317.1c5.1,20.6-14.2,39.9-14.2,39.9l-1-23.4s-16.1-26-13.9-45.3c-32.6,9.5-45-3.8-45-3.8-22.2,13.9-65.6-.3-59.9-37.1,5.7-36.7,54.2-29.8,65.6-6.7,1-.5,2-.9,3-1.2,3.5-1.4,6.6-2.3,9.5-3,14.4-3,21.7,2.8,24,9.6,21.5-3.5,26,6.7,28.2,14.3,1.1-.1,2.1-.2,3.2-.1l-9.4,62.7,6.7,1,9.3-62.3c13.3,5.3,20.8,25.4-6,55.5Z"/>
    <path class="cls-5" d="M675.8,301.5l-3.4,22.5-6.7-1,3.7-24.5c-.5-.1-1-.3-1.5-.4-7.2-1.6-14.4.4-20.2,4.8,3.5,15.7,12.8,30.7,12.8,30.7l.9,22.8c.2,0,.4,0,.7,0,3.3-3.5,18.1-20.9,13.6-39.2,2.6-3,4.9-5.9,7-8.6-1.9-2.8-4.2-5.2-6.9-7Z"/>
    <path class="cls-6" d="M669.8,296.2l-4,26.8,6.7,1,3.6-24c-1.9-1.6-4-2.9-6.3-3.8Z"/>
    <path class="cls-4" d="M656.5,357.4l-13.3,8.4-6.7,4.2-3.3,2.1c-1.2.8-2.6,1.5-4.1,1.9-1.4.5-2.9.8-4.4,1-.8,0-1.5.1-2.3,0h-2s-7.9-.2-7.9-.2l-15.8-.3c-2,0-3.6-1.7-3.6-3.7,0-2,1.7-3.6,3.7-3.6,0,0,.2,0,.2,0l15.7,1.3,7.8.7,2,.2c.5,0,1.1,0,1.6,0,1.1,0,2.2-.2,3.3-.5,1.1-.3,2.1-.7,3.1-1.2l3.5-1.9,6.9-3.7,13.9-7.5c.7-.4,1.7-.1,2.1.6.4.7.1,1.6-.5,2Z"/>
    <ellipse class="cls-4" cx="665.3" cy="335.7" rx="29.6" ry="25.9" transform="translate(193 912.1) rotate(-77.4)"/>
    <circle class="cls-5" cx="588.3" cy="316.8" r="3.7"/>
    <circle class="cls-5" cx="624.8" cy="320.5" r="3.7"/>
    <path class="cls-5" d="M604.2,313c1.2,3.1,2,6.5,2.3,9.9v.6c0,.2,0,.5,0,.7,0,.5,0,1-.2,1.4-.2.9-.7,1.8-1.3,2.6-.6.8-1.5,1.4-2.2,1.8l-2.1,1.4-2.1,1.4c-.4.3-.6.7-.7,1.1,0,.4,0,.9.3,1.2.3.3.5.5,1,.5l9.8,1.6c1.1.2,1.9,1.3,1.7,2.4-.2,1.1-1.3,1.9-2.4,1.7,0,0-.1,0-.2,0l-9.7-2.4c-1.2-.2-2.4-1-3-2.1-.7-1.1-.9-2.4-.6-3.6.3-1.2,1.1-2.3,2.1-2.9l2.2-1.2,2.2-1.2c.8-.4,1.3-.7,1.8-1.2.5-.5.8-1.1,1.1-1.7.1-.3.2-.7.2-1,0-.2,0-.3,0-.5v-.6c0-3.2-.6-6.5-1.5-9.6,0-.3,0-.6.4-.6.3,0,.5,0,.6.3Z"/>
    <path class="cls-5" d="M600.1,347.7c1.5.2,3.2.2,4.8.1,1.6,0,3.2-.3,4.8-.7,1.6-.3,3.1-.8,4.5-1.5,1.5-.6,2.8-1.5,4-2.4h0c.8-.6,1.8-.4,2.4.3.5.8.4,1.8-.4,2.4,0,0,0,0,0,0-1.5,1-3.1,2-4.8,2.6-1.7.7-3.4,1.2-5.2,1.5-1.8.3-3.5.5-5.3.5-1.8,0-3.5,0-5.3-.4-.7-.1-1.2-.8-1.1-1.5.1-.7.8-1.2,1.5-1.1h0Z"/>
    <path class="cls-16" d="M582,307.4s7.2-5.9,14.2.6"/>
    <path class="cls-16" d="M618.1,310.4s7.2-5.9,14.2.6"/>
  </g>
  <path class="cls-6" d="M501.6,399.5c-15.4,1.6-17.9,4.2-19.6,19.6,0,.6-.9.6-.9,0-1.6-15.4-4.2-17.9-19.6-19.6-.6,0-.6-.9,0-.9,15.4-1.6,17.9-4.2,19.6-19.6,0-.6.9-.6.9,0,1.6,15.4,4.2,17.9,19.6,19.6.6,0,.6.9,0,.9Z"/>
  <path class="cls-6" d="M221.7,341.9c-15.4,1.6-17.9,4.2-19.6,19.6,0,.6-.9.6-.9,0-1.6-15.4-4.2-17.9-19.6-19.6-.6,0-.6-.9,0-.9,15.4-1.6,17.9-4.2,19.6-19.6,0-.6.9-.6.9,0,1.6,15.4,4.2,17.9,19.6,19.6.6,0,.6.9,0,.9Z"/>
  <path class="cls-6" d="M789.5,385.3c-26,2.8-30.4,7.1-33.1,33.1s-1.5.9-1.6,0c-2.8-26-7.1-30.4-33.1-33.1-.9-.1-.9-1.5,0-1.6,26-2.8,30.4-7.1,33.1-33.1.1-.9,1.5-.9,1.6,0,2.8,26,7.1,30.4,33.1,33.1.9.1.9,1.5,0,1.6Z"/>
  <polyline class="cls-15" points="303.4 347.5 315.7 358.4 327.6 393.1"/>
  <g>
    <ellipse class="cls-5" cx="340.4" cy="805.9" rx="103.5" ry="22.3"/>
    <path class="cls-6" d="M512,748.7H251.6c-9.2,0-17.1-6.8-18.4-15.9l-21.7-149c-.8-5.4,3.4-10.3,8.9-10.3h261.2c8.8,0,16.3,6.5,17.6,15.2l21.8,149.7c.8,5.4-3.4,10.3-8.9,10.3Z"/>
    <polygon class="cls-5" points="382.8 670.4 385.3 748.7 343.9 748.7 382.8 670.4"/>
    <path class="cls-11" d="M219.8,580.1h258.9c6.9,0,12.8,5.1,13.8,11.9l21.3,146.2"/>
    <polygon class="cls-4" points="366.2 805.9 315.5 805.9 332.1 670.4 382.8 670.4 366.2 805.9"/>
    <line class="cls-13" x1="376" y1="674.2" x2="359.2" y2="800.6"/>
  </g>
  <g>
    <g>
      <ellipse class="cls-4" cx="413.1" cy="247.4" rx="108.5" ry="75.5"/>
      <path class="cls-4" d="M480.3,285.2c.7,1.7,16.3,40.6,52.4,46.3-32.4,13.3-67.3-8-78.5-29.4l26.1-16.9Z"/>
    </g>
    <g>
      <path class="cls-8" d="M384.8,224.6l-6.7,38h-7.7l2.9-16.3h-16.2l-2.9,16.3h-7.7l6.8-38h7.6l-2.8,15.7h16.3l2.8-15.7h7.6Z"/>
      <path class="cls-8" d="M413.3,235.1c2.3,2.1,3.4,5,3.4,8.6s0,2.2-.3,3.1c-.2,1.1-.5,2-.7,2.8h-22.1c0,.3,0,.6,0,1.1,0,1.9.6,3.4,1.7,4.4,1.1,1.1,2.6,1.6,4.4,1.6s2.8-.3,3.9-1c1.1-.7,2-1.6,2.7-2.6h8.2c-1.3,2.9-3.4,5.3-6.2,7.2-2.8,1.9-6,2.8-9.6,2.8s-6.9-1.1-9.3-3.3c-2.3-2.2-3.5-5.1-3.5-8.9s.1-2.2.3-3.4c.5-3.1,1.7-5.9,3.3-8.2,1.7-2.4,3.8-4.2,6.3-5.4,2.5-1.3,5.2-1.9,8.2-1.9s6.9,1.1,9.1,3.2ZM408.9,243.7c0-1.7-.6-3.1-1.7-4.1-1.1-1-2.6-1.5-4.4-1.5s-3.6.6-5.2,1.8c-1.5,1.2-2.6,2.9-3.2,5h14.4c0-.6.1-1,.1-1.3Z"/>
      <path class="cls-8" d="M433.9,222.3l-7.1,40.3h-7.7l7.1-40.3h7.7Z"/>
      <path class="cls-8" d="M449.1,222.3l-7.1,40.3h-7.7l7.1-40.3h7.7Z"/>
      <path class="cls-8" d="M456.1,261.5c-2-1.1-3.5-2.5-4.6-4.5-1.1-1.9-1.6-4.1-1.6-6.6s.8-6.5,2.4-9.3c1.6-2.8,3.8-5,6.6-6.7,2.8-1.6,5.9-2.5,9.4-2.5s4.9.5,6.9,1.6c2,1.1,3.6,2.6,4.7,4.5,1.1,1.9,1.7,4.1,1.7,6.6s-.8,6.6-2.4,9.4c-1.6,2.8-3.9,5-6.7,6.6-2.9,1.6-6,2.4-9.4,2.4s-4.9-.5-6.8-1.6ZM468.9,255c1.5-1.1,2.6-2.5,3.5-4.2.8-1.7,1.3-3.6,1.3-5.5s-.6-3.9-1.8-5c-1.2-1.2-2.7-1.8-4.6-1.8s-3.5.5-4.9,1.6c-1.4,1.1-2.6,2.5-3.3,4.2-.8,1.8-1.2,3.6-1.2,5.6s.6,3.8,1.7,5c1.1,1.2,2.6,1.7,4.5,1.7s3.5-.5,5-1.6Z"/>
    </g>
  </g>
  <g>
    <ellipse class="cls-4" cx="201.6" cy="494.7" rx="95.1" ry="66.5"/>
    <polygon class="cls-4" points="260.8 540 286.9 603.4 219.1 550.6 260.8 540"/>
    <g>
      <rect class="cls-6" x="154.6" y="465.2" width="94" height="62.2" rx="5.4" ry="5.4"/>
      <path class="cls-3" d="M242.6,471.7c-.5-.5-1.3-.5-1.7,0l-36,35.9c-1.8,1.8-4.7,1.8-6.4,0l-36-35.9c-.5-.5-1.3-.5-1.7,0-.5.5-.5,1.3,0,1.7l25.3,25.3-23.4,20.5c-.5.4-.6,1.2-.1,1.7.2.3.6.4.9.4s.6-.1.8-.3l23.5-20.6,8.9,8.8c1.4,1.4,3.2,2,5,2s3.6-.7,5-2l8.9-8.8,23.5,20.6c.2.2.5.3.8.3s.7-.1.9-.4c.4-.5.4-1.3-.1-1.7l-23.4-20.5,25.3-25.3c.5-.5.5-1.3,0-1.7Z"/>
    </g>
    <circle class="cls-9" cx="248.6" cy="469.5" r="13.5"/>
  </g>
  <g>
    <polygon class="cls-12" points="751.9 254.6 842.5 256.5 815 285.3 751.9 254.6"/>
    <polygon class="cls-12" points="751.9 254.6 807.6 292 778.8 316.1 751.9 254.6"/>
    <polyline class="cls-12" points="815 285.3 814.3 314.8 798.4 299.7"/>
  </g>
  <path class="cls-10" d="M832.3,296.2c33.8,8.8,67.8,49.3,60.1,91-6.7,36.6-61.3,52.3-63.9,20.5-1-12.9,14.6-14,23.7-11.5,16.4,4.4,28.6,18.7,35.7,34.1,15.1,32.4-11.3,65.3-41.8,75.2-8.4,2.7-16.9,5.1-25.5,7.2"/>
</svg>