<?xml version="1.0" encoding="UTF-8"?>
<svg id="Layer_1" data-name="Layer 1" xmlns="http://www.w3.org/2000/svg" version="1.1" xmlns:xlink="http://www.w3.org/1999/xlink" viewBox="0 0 100 100">
  <defs>
    <style>
      .cls-1 {
        fill: #005f43;
      }

      .cls-1, .cls-2 {
        stroke-width: 0px;
      }

      .cls-3 {
        filter: url(#drop-shadow-1);
      }

      .cls-2 {
        fill: #fff;
      }
    </style>
    <filter id="drop-shadow-1" filterUnits="userSpaceOnUse">
      <feOffset dx="2.4" dy="2.4"/>
      <feGaussianBlur result="blur" stdDeviation=".5"/>
      <feFlood flood-color="#000" flood-opacity=".5"/>
      <feComposite in2="blur" operator="in"/>
      <feComposite in="SourceGraphic"/>
    </filter>
  </defs>
  <g class="cls-3">
    <path class="cls-1" d="M86.7,30.8H29c-2.6,0-5,1-6.8,2.8-1.8,1.8-2.8,4.2-2.8,6.8v32.1c0,2.6,1,5,2.8,6.8,1.8,1.8,4.2,2.8,6.8,2.8h33.1l4.4,11c.6,1.5,1.6,2.7,2.9,3.6,1.3.9,2.9,1.4,4.4,1.4s3.1-.5,4.4-1.4c1.3-.9,2.3-2.1,2.9-3.6l4.4-11h1c2.6,0,5-1,6.8-2.8,1.8-1.8,2.8-4.2,2.8-6.8v-32.1c0-2.6-1-5-2.8-6.8-1.8-1.8-4.2-2.8-6.8-2.8Z"/>
    <path class="cls-2" d="M67.4,1.9H9.7c-2.6,0-5,1-6.8,2.8C1.1,6.5.1,9,.1,11.5v32.1c0,2.6,1,5,2.8,6.8,1.8,1.8,4.2,2.8,6.8,2.8h1l4.4,11c.6,1.5,1.6,2.7,2.9,3.6,1.3.9,2.9,1.4,4.4,1.4s3.1-.5,4.4-1.4c1.3-.9,2.3-2.1,2.9-3.6l4.4-11h33.1c2.6,0,5-1,6.8-2.8,1.8-1.8,2.8-4.2,2.8-6.8V11.5c0-2.6-1-5-2.8-6.8-1.8-1.8-4.3-2.8-6.8-2.8Z"/>
    <path class="cls-1" d="M51.6,22.7l-14.8-7.4c-.8-.4-1.7-.6-2.7-.6-.9,0-1.8.3-2.6.8-.8.5-1.4,1.2-1.9,2-.4.8-.7,1.7-.7,2.6v14.9c0,.9.2,1.8.7,2.6.4.8,1.1,1.5,1.9,2,.8.5,1.8.8,2.8.8.8,0,1.7-.2,2.4-.6l14.8-7.4c.9-.5,1.6-1.1,2.1-2,.5-.8.8-1.8.8-2.8s-.3-2-.8-2.8c-.5-.8-1.3-1.5-2.1-2h0Z"/>
    <path class="cls-2" d="M48.2,66h-1.6c-.9,0-1.7-.3-2.3-.9-.6-.6-.9-1.4-.9-2.3s.3-1.7.9-2.3c.6-.6,1.4-.9,2.3-.9h1.6c.9,0,1.7.3,2.3.9.6.6.9,1.4.9,2.3s-.3,1.7-.9,2.3c-.6.6-1.4.9-2.3.9Z"/>
    <path class="cls-2" d="M61,66h-1.6c-.9,0-1.7-.3-2.3-.9-.6-.6-.9-1.4-.9-2.3s.3-1.7.9-2.3c.6-.6,1.4-.9,2.3-.9h1.6c.9,0,1.7.3,2.3.9.6.6.9,1.4.9,2.3s-.3,1.7-.9,2.3c-.6.6-1.4.9-2.3.9Z"/>
    <path class="cls-2" d="M73.8,66h-1.6c-.9,0-1.7-.3-2.3-.9s-.9-1.4-.9-2.3.3-1.7.9-2.3c.6-.6,1.4-.9,2.3-.9h1.6c.9,0,1.7.3,2.3.9.6.6.9,1.4.9,2.3s-.3,1.7-.9,2.3-1.4.9-2.3.9Z"/>
  </g>
</svg>