<?xml version="1.0" encoding="UTF-8"?>
<svg id="Layer_1" data-name="Layer 1" xmlns="http://www.w3.org/2000/svg" version="1.1" xmlns:xlink="http://www.w3.org/1999/xlink" viewBox="0 0 100 100">
  <defs>
    <style>
      .cls-1 {
        filter: url(#drop-shadow-6);
      }

      .cls-1, .cls-2, .cls-3, .cls-4, .cls-5, .cls-6, .cls-7 {
        fill: #fff;
        stroke-width: 0px;
      }

      .cls-2 {
        filter: url(#drop-shadow-4);
      }

      .cls-3 {
        filter: url(#drop-shadow-3);
      }

      .cls-4 {
        filter: url(#drop-shadow-7);
      }

      .cls-5 {
        filter: url(#drop-shadow-2);
      }

      .cls-6 {
        filter: url(#drop-shadow-5);
      }

      .cls-7 {
        filter: url(#drop-shadow-1);
      }
    </style>
    <filter id="drop-shadow-1" filterUnits="userSpaceOnUse">
      <feOffset dx="2.4" dy="2.4"/>
      <feGaussianBlur result="blur" stdDeviation=".5"/>
      <feFlood flood-color="#000" flood-opacity=".5"/>
      <feComposite in2="blur" operator="in"/>
      <feComposite in="SourceGraphic"/>
    </filter>
    <filter id="drop-shadow-2" filterUnits="userSpaceOnUse">
      <feOffset dx="2.4" dy="2.4"/>
      <feGaussianBlur result="blur-2" stdDeviation=".5"/>
      <feFlood flood-color="#000" flood-opacity=".5"/>
      <feComposite in2="blur-2" operator="in"/>
      <feComposite in="SourceGraphic"/>
    </filter>
    <filter id="drop-shadow-3" filterUnits="userSpaceOnUse">
      <feOffset dx="2.4" dy="2.4"/>
      <feGaussianBlur result="blur-3" stdDeviation=".5"/>
      <feFlood flood-color="#000" flood-opacity=".5"/>
      <feComposite in2="blur-3" operator="in"/>
      <feComposite in="SourceGraphic"/>
    </filter>
    <filter id="drop-shadow-4" filterUnits="userSpaceOnUse">
      <feOffset dx="2.4" dy="2.4"/>
      <feGaussianBlur result="blur-4" stdDeviation=".5"/>
      <feFlood flood-color="#000" flood-opacity=".5"/>
      <feComposite in2="blur-4" operator="in"/>
      <feComposite in="SourceGraphic"/>
    </filter>
    <filter id="drop-shadow-5" filterUnits="userSpaceOnUse">
      <feOffset dx="2.4" dy="2.4"/>
      <feGaussianBlur result="blur-5" stdDeviation=".5"/>
      <feFlood flood-color="#000" flood-opacity=".5"/>
      <feComposite in2="blur-5" operator="in"/>
      <feComposite in="SourceGraphic"/>
    </filter>
    <filter id="drop-shadow-6" filterUnits="userSpaceOnUse">
      <feOffset dx="2.4" dy="2.4"/>
      <feGaussianBlur result="blur-6" stdDeviation=".5"/>
      <feFlood flood-color="#000" flood-opacity=".5"/>
      <feComposite in2="blur-6" operator="in"/>
      <feComposite in="SourceGraphic"/>
    </filter>
    <filter id="drop-shadow-7" filterUnits="userSpaceOnUse">
      <feOffset dx="2.4" dy="2.4"/>
      <feGaussianBlur result="blur-7" stdDeviation=".5"/>
      <feFlood flood-color="#000" flood-opacity=".5"/>
      <feComposite in2="blur-7" operator="in"/>
      <feComposite in="SourceGraphic"/>
    </filter>
  </defs>
  <path class="cls-7" d="M7.5,20.7c.4,0,.7-.2,1-.4.3-.3.4-.6.4-1s-.2-.7-.4-1c-.3-.3-.6-.4-1-.4s-.7.2-1,.4c-.3.3-.4.6-.4,1s.2.7.4,1c.3.3.6.4,1,.4Z"/>
  <path class="cls-5" d="M12.1,20.7c.4,0,.7-.2,1-.4.3-.3.4-.6.4-1s-.2-.7-.4-1c-.3-.3-.6-.4-1-.4s-.7.2-1,.4c-.3.3-.4.6-.4,1s.2.7.4,1c.3.3.6.4,1,.4Z"/>
  <path class="cls-3" d="M16.6,20.7c.4,0,.7-.2,1-.4.3-.3.4-.6.4-1s-.2-.7-.4-1c-.3-.3-.6-.4-1-.4s-.7.2-1,.4c-.3.3-.4.6-.4,1s.2.7.4,1c.3.3.6.4,1,.4Z"/>
  <path class="cls-2" d="M22.7,20.7h57.7c.8,0,1.4-.6,1.4-1.4s-.6-1.4-1.4-1.4H22.7c-.8,0-1.4.6-1.4,1.4s.6,1.4,1.4,1.4Z"/>
  <path class="cls-6" d="M86.5,20.7h3c.8,0,1.4-.6,1.4-1.4s-.6-1.4-1.4-1.4h-3c-.8,0-1.4.6-1.4,1.4s.6,1.4,1.4,1.4Z"/>
  <path class="cls-1" d="M83.5,33.1h-27.4c-2.5,0-4.5,2-4.5,4.5h0c0,0-1.6,0-1.6,0-2.5,0-4.5,2-4.5,4.5v12.3h-3.2v-4.7c0-2.5-2-4.5-4.5-4.5H13.6c-2.5,0-4.5,2-4.5,4.5v12.2c0,2.5,2,4.5,4.5,4.5h24.3c2.5,0,4.5-2,4.5-4.5v-4.7h3.2v12.3c0,2.5,2,4.5,4.5,4.5h1.6c0,2.6,2,4.6,4.5,4.6h27.4c2.5,0,4.5-2,4.5-4.5v-3c0-2.5-2-4.5-4.5-4.5h-27.4c-2.5,0-4.5,2-4.5,4.5h0c0,0-1.6,0-1.6,0-.9,0-1.6-.7-1.6-1.6v-12.3h3.2c0,2.6,2,4.6,4.5,4.6h27.4c2.5,0,4.5-2,4.5-4.5v-3c0-2.5-2-4.5-4.5-4.5h-27.4c-2.5,0-4.5,2-4.5,4.5h0c0,0-3.2,0-3.2,0v-12.3c0-.9.7-1.6,1.6-1.6h1.6c0,2.6,2,4.6,4.5,4.6h27.4c2.5,0,4.5-2,4.5-4.5v-3c0-2.5-2-4.5-4.5-4.5ZM39.5,61.9c0,.9-.7,1.6-1.6,1.6H13.6c-.9,0-1.6-.7-1.6-1.6v-12.2c0-.9.7-1.6,1.6-1.6h24.3c.9,0,1.6.7,1.6,1.6v12.2ZM54.5,71c0-.9.7-1.6,1.6-1.6h27.4c.9,0,1.6.7,1.6,1.6v3c0,.9-.7,1.6-1.6,1.6h-27.4c-.9,0-1.6-.7-1.6-1.6v-3ZM54.5,54.3c0-.9.7-1.6,1.6-1.6h27.4c.9,0,1.6.7,1.6,1.6v3c0,.9-.7,1.6-1.6,1.6h-27.4c-.9,0-1.6-.7-1.6-1.6v-3ZM85.1,40.6c0,.9-.7,1.6-1.6,1.6h-27.4c-.9,0-1.6-.7-1.6-1.6v-3c0-.9.7-1.6,1.6-1.6h27.4c.9,0,1.6.7,1.6,1.6v3Z"/>
  <path class="cls-4" d="M89.6,11.8H7.5C3.4,11.8,0,15.2,0,19.3v60.8C0,84.2,3.4,87.6,7.5,87.6h82.1c4.1,0,7.5-3.4,7.5-7.5V19.3c0-4.1-3.4-7.5-7.5-7.5ZM7.5,14.7h82.1c2.6,0,4.7,2.1,4.7,4.7v4.7H2.8v-4.7c0-2.6,2.1-4.7,4.7-4.7ZM89.6,84.8H7.5c-2.6,0-4.7-2.1-4.7-4.7V26.8h91.4v53.3c0,2.6-2.1,4.7-4.7,4.7Z"/>
</svg>