<?xml version="1.0" encoding="UTF-8"?>
<svg id="Layer_1" data-name="Layer 1" xmlns="http://www.w3.org/2000/svg" version="1.1" xmlns:xlink="http://www.w3.org/1999/xlink" viewBox="0 0 100 100">
  <defs>
    <style>
      .cls-1 {
        filter: url(#drop-shadow-1);
      }

      .cls-2 {
        fill: #fff;
        stroke-width: 0px;
      }
    </style>
    <filter id="drop-shadow-1" filterUnits="userSpaceOnUse">
      <feOffset dx="2.4" dy="2.4"/>
      <feGaussianBlur result="blur" stdDeviation=".5"/>
      <feFlood flood-color="#000" flood-opacity=".5"/>
      <feComposite in2="blur" operator="in"/>
      <feComposite in="SourceGraphic"/>
    </filter>
  </defs>
  <g class="cls-1">
    <path class="cls-2" d="M89.6,9.5h-23.8c-3.6,0-6.6,3-6.6,6.6v7.5h-9.8s0,0,0,0H13.8s0,0,0,0h-6.3c-3.8,0-7,3.1-7,7v41.9c0,3.8,3.1,7,7,7h25l-2.2,9s0,0,0,0c0,0,0,0,0,.1,0,0,0,0,0,0,0,0,0,0,0,.1,0,0,0,0,0,0,0,0,0,0,0,0,0,0,0,0,0,.1,0,0,0,0,0,0,0,0,0,.1,0,.2,0,0,0,0,0,0,0,0,0,0,0,.1,0,0,0,0,0,0,0,0,0,0,0,.1,0,0,0,0,0,0,0,0,0,0,0,.1,0,0,0,0,0,0,0,0,0,0,0,0,0,0,0,0,0,0,0,0,0,0,0,0,0,0,0,0,0,.1,0,0,0,0,0,0,0,0,0,0,.1.1,0,0,0,0,0,0,0,0,0,0,.1,0,0,0,0,0,0,0,0,0,0,0,.1,0,0,0,0,0,0,0,0,0,0,0,.1,0,0,0,0,0,0,0,0,0,0,0,.1,0,0,0,0,0,0,0,0,0,0,0,.1,0,0,0,0,0,0,0,0,0,.1,0,.2,0h32.6c.9,0,1.6-.7,1.6-1.6s-.7-1.6-1.6-1.6h-10.8l1.9-7.7h28.6c3.4,0,6.2-2.8,6.2-6.2v-14.1c3.3-.4,5.8-3.2,5.8-6.5V16.1c0-3.6-3-6.6-6.6-6.6ZM67.7,16.1c0-1.8,1.5-3.3,3.3-3.3h18.5c1.8,0,3.3,1.5,3.3,3.3v1.9h-25.2v-1.9ZM67.7,21.3h25.2v25.9h-.8l-8.2-9c-.3-.3-.7-.5-1.2-.5s-.9.2-1.2.5l-2.3,2.6-5.8-6.4c-.3-.3-.7-.5-1.2-.5s-.9.2-1.2.5l-3.2,3.5v-16.6ZM87.7,47.2h-2.7l-3.7-4,1.3-1.5,5,5.5ZM67.7,42.6h0c0,0,4.3-4.7,4.3-4.7l8.5,9.3h-12.9v-4.6ZM62.5,16.1c0-1.7,1.2-3,2.8-3.3-.6,1-.9,2.1-.9,3.3v36.5c0,1.2.3,2.3.9,3.3-1.6-.2-2.8-1.6-2.8-3.3V16.1h0ZM10.8,60.4l13.1-13.5,17.5,19.2H10.8v-5.7ZM38.3,57.8l3.9-4.3,11.4,12.6h-7.8s-7.5-8.3-7.5-8.3ZM8.3,76.2h-.8c-2,0-3.7-1.7-3.7-3.7V30.6c0-2,1.7-3.7,3.7-3.7h.8c-.5.9-.8,1.9-.8,3v43.4c0,1.1.3,2.1.8,3ZM50.2,87.2h-16.3l1.9-7.7h16.3l-1.9,7.7ZM87.1,73.3c0,1.6-1.3,3-3,3H13.8c-1.6,0-3-1.3-3-3v-3.9h76.3v3.9ZM87.1,66.1h-29l-14.6-16.1c-.3-.3-.7-.5-1.2-.5s-.9.2-1.2.5l-4.9,5.4-10.9-12c-.3-.3-.7-.5-1.2-.5-.5,0-.9.2-1.2.5l-12,12.3v-25.8c0-1.6,1.3-3,3-3h45.5v25.7c0,3.6,3,6.6,6.6,6.6h21.2v6.9h0ZM92.9,52.6c0,1.8-1.5,3.3-3.3,3.3h-18.5c-1.8,0-3.3-1.5-3.3-3.3v-2.1h25.2v2.1h0Z"/>
  </g>
</svg>