<?xml version="1.0" encoding="UTF-8"?>
<svg id="Layer_1" data-name="Layer 1" xmlns="http://www.w3.org/2000/svg" version="1.1" xmlns:xlink="http://www.w3.org/1999/xlink" viewBox="0 0 1920 1080">
  <defs>
    <style>
      .cls-1 {
        fill: #63BCE5;
        filter: url(#drop-shadow-1);
      }

      .cls-1, .cls-2 {
        stroke-width: 0px;
      }

      .cls-2 {
        fill: none;
      }
    </style>
    <filter id="drop-shadow-1" filterUnits="userSpaceOnUse">
      <feOffset dx="-50" dy="0"/>
      <feGaussianBlur result="blur" stdDeviation="50"/>
      <feFlood flood-color="#3778C2" flood-opacity="1"/>
      <feComposite in2="blur" operator="in"/>
      <feComposite in="SourceGraphic"/>
    </filter>
  </defs>
  <path class="cls-1" d="M813.4,0c-8.7,32.8-28.9,91.4-78,148.6-39.9,46.5-83,73.4-111.2,88.1l-89.5,28.9c-39.6,11.7-64.7,49.1-60.6,86.6,3.4,31,26.2,57.8,57.8,67.9,27.4,2.1,71.1,2.4,121.3-11.6,46.2-12.9,71.8-30.6,160.3-82.3,27.4-16,70.3-40.8,124.2-70.8,148.4-78.4,304.9-78.2,399.8,1.2,67.1,56.2,83.3,135.2,90.2,168.8,42.5,207.3-107.4,411.9-240.2,517.3-112.9,89.6-233.6,123.6-317.7,137.3h1050.3V0H813.4Z"/>
  <rect class="cls-2" width="1920" height="1080"/>
</svg>