<?xml version="1.0" encoding="UTF-8"?>
<svg id="Layer_1" data-name="Layer 1" xmlns="http://www.w3.org/2000/svg" version="1.1" viewBox="0 0 1000 1000">
  <defs>
    <style>
      .cls-1 {
        fill: #000;
      }

      .cls-1, .cls-2, .cls-3 {
        stroke-width: 0px;
      }

      .cls-2, .cls-4 {
        fill: #ff4a17;
      }

      .cls-3 {
        fill: #992c0e;
      }

      .cls-4 {
        font-family: Montserrat-Bold, Montserrat;
        font-size: 129.3px;
        font-weight: 700;
      }
    </style>
  </defs>
  <path class="cls-3" d="M81.8,604.2c-.8,0-1.5,0-2.2,0h0s2.2,0,2.2,0Z"/>
  <polygon class="cls-1" points="21.1 532.5 21.1 532.5 21.1 532.5 21.1 532.5"/>
  <polygon class="cls-1" points="-44.9 621.1 -44.9 621.1 -44.9 621.2 -44.9 621.1"/>
  <path class="cls-1" d="M81.8,604.2c-.8,0-1.5,0-2.2,0h0s2.2,0,2.2,0Z"/>
  <g>
    <path class="cls-2" d="M200.7,476.9v39.4c0,25.3-20,46-45,47.1,1.4-1.3,3.5-3.3,5.6-6,4.2-5.3,8.6-13.4,9.3-24.1,1.4-20.4-12.3-33.6-15-36.1l-3-2.7c4.6-5.2,12.7-16.9,11.5-32.4-1-12.9-8.3-24.5-19.1-32.1-.2-.1-.4-.3-.6-.4h9.2c26.1,0,47.2,21.2,47.2,47.2h0Z"/>
    <path class="cls-3" d="M184.1,475.2v42.9c0,16.8-9.2,31.6-22.8,39.5,4.2-5.3,8.6-13.4,9.3-24.1,1.4-20.4-12.3-33.6-15-36.1l-3-2.7c4.6-5.2,12.7-16.9,11.5-32.4-1-12.9-8.3-24.5-19.1-32.1,22.1,3.1,39.2,22.1,39.2,45h0Z"/>
    <path class="cls-2" d="M145.1,489.9l-20.9,21.7-13.6-2.1,1.7-9.1,21.4-22.3c.6-.8,6.3-8.1,3.7-17.1-1.8-6.4-7-11.3-13.5-12.9l-40.3-.9v31.2l-17.2,16.5v-64.8h55.9c18.2,3.3,31.8,16.9,33.1,33.1,1.1,13.3-6.8,23.3-10.2,26.9h0Z"/>
    <path class="cls-2" d="M161.9,532.8c-.9,13.1-8.8,21.3-12.1,24.3-7.7,6.8-16.4,8.4-20.8,8.8h-62.7v-3c.4-10,.4-19.8,0-29.1v-1.2c-.2-6.3-.4-11.7,1.8-18.3,1.8-5.3,4.8-10.2,8.8-14.6h0c0,0,19.5-19.6,19.5-19.6l11.8,11.8-18.9,18.9c-1.3,1.4-2.5,3-3.4,4.7-.9,1.7-1.7,3.4-2.2,5.2-.9,3.1-.9,5.6-.9,6.9,0,8,.2,17.2.4,21.7l44.4-.4c7.2-.8,13.3-5.5,15.9-12.2,2.8-7.2.7-15.7-5.1-21l-2.1-2,11.2-11.9,2.1,1.9c2.2,2,13.2,12.6,12.1,29h0Z"/>
  </g>
  <text class="cls-4" transform="translate(227.8 542.2)"><tspan x="0" y="0">BRANDOM</tspan></text>
</svg>