<svg width="84" height="84" viewBox="0 0 84 84" fill="none" xmlns="http://www.w3.org/2000/svg">
<path d="M46.5109 18.8496H51.6433C60.6145 18.8496 67.8973 26.1324 67.8973 35.1036V48.678C67.8973 57.6492 60.6145 64.932 51.6433 64.932H46.5109V18.8496Z" fill="#28559A"/>
<path d="M46.5109 18.8496C55.1545 18.8496 62.1769 25.8636 62.1769 34.5156V49.2744C62.1769 57.918 55.1629 64.9404 46.5109 64.9404V18.8496Z" fill="#18345E"/>
<path d="M33.3648 48.804L34.65 41.748L42.5208 33.516C42.7476 33.2136 43.6128 31.9032 43.1928 30.4248C42.8904 29.358 42.0504 28.5096 40.9752 28.1568L30.5676 27.9216V36.8592L18.6312 48.2916V15.9264H41.0928L41.454 15.9936C49.0392 17.3544 54.7344 23.1504 55.2972 30.072C55.7676 35.8764 52.4244 40.0932 50.9712 41.6388L42.6552 50.2572L33.3732 48.7956L33.3648 48.804Z" fill="white"/>
<path d="M48.7704 39.5808L41.5632 47.0484L36.876 46.3092L37.4472 43.176L44.7972 35.4816C45.0156 35.2128 46.9728 32.7096 46.0824 29.5932C45.4524 27.4008 43.6716 25.704 41.412 25.1496L27.5436 24.8388V35.574L21.63 41.2356V18.9336H40.7988L40.8912 18.9504C47.1492 20.076 51.8364 24.7464 52.29 30.3156C52.6596 34.9104 49.9548 38.3292 48.7704 39.5808Z" fill="#28559A"/>
<path d="M18.5052 68.7624L18.6228 64.638C18.7152 61.2528 18.7152 57.9348 18.6228 54.7848L18.606 54.39C18.5304 52.122 18.4632 49.7952 19.4208 47.0064C20.1852 44.7804 21.42 42.7308 23.1 40.9164L23.142 40.8744L32.0376 31.9788L40.3789 40.32L31.7688 48.93C31.4916 49.2324 31.248 49.5768 31.038 49.9464C30.8364 50.3076 30.6684 50.7108 30.5676 51.072C30.3828 51.7188 30.3828 52.2732 30.3828 52.6428C30.3828 54.1296 30.408 55.7424 30.4416 57.0948L42.5964 56.9688C43.9068 56.7672 44.9988 55.9188 45.4524 54.7176C45.9564 53.3904 45.5533 51.7692 44.4697 50.7612L41.5129 48.0144L49.4509 39.5472L52.3741 42.1512C53.3148 42.9828 58.002 47.5272 57.5401 54.5748C57.1704 60.1944 53.7853 63.7308 52.3489 64.9908C49.0393 67.8888 45.3517 68.586 43.4449 68.754L43.2684 68.7708H18.5052V68.7624Z" fill="white"/>
<path d="M54.5328 54.3732C54.2388 58.8756 51.5172 61.7148 50.3664 62.7228C47.7036 65.0496 44.73 65.6124 43.1928 65.7468H21.6048L21.6384 64.722C21.7392 61.2696 21.7392 57.9012 21.6384 54.6924L21.6216 54.2892C21.5544 52.122 21.4956 50.2488 22.2684 47.9808C22.8984 46.158 23.9232 44.4612 25.3092 42.9576L25.3344 42.9324L32.0376 36.2292L36.12 40.3116L29.5932 46.8384C29.1396 47.334 28.7364 47.88 28.4088 48.468C28.0896 49.0392 27.8376 49.6524 27.6696 50.2488C27.3672 51.3072 27.3756 52.1724 27.3756 52.6428C27.3756 55.3896 27.468 58.5648 27.51 60.1356L42.8064 59.976C45.3012 59.682 47.3844 58.086 48.2664 55.7844C49.2156 53.298 48.51 50.3916 46.5192 48.5436L45.78 47.8632L49.6356 43.7556L50.358 44.4024C51.1224 45.0828 54.894 48.7452 54.5244 54.3816L54.5328 54.3732Z" fill="#28559A"/>
</svg>
