<?xml version="1.0" encoding="UTF-8"?>
<svg id="Layer_1" data-name="Layer 1" xmlns="http://www.w3.org/2000/svg" version="1.1" viewBox="0 0 100 100">
  <defs>
    <style>
      .cls-1 {
        fill: #ff4a17;
        stroke-width: 0px;
      }
    </style>
  </defs>
  <g>
    <path class="cls-1" d="M15.3,39.2c1.7,0,3.3.7,4.5,1.8l4.5,4.5c2.5,2.5,2.5,6.4,0,8.9l-4.5,4.5c-1.2,1.2-2.8,1.8-4.5,1.8s-3.3-.7-4.5-1.8l-4.5-4.5c-2.5-2.5-2.5-6.4,0-8.9l4.5-4.5c1.2-1.2,2.8-1.8,4.5-1.8M15.3,37c-2.2,0-4.4.8-6,2.5l-4.5,4.5c-3.3,3.3-3.3,8.7,0,12l4.5,4.5c1.7,1.7,3.8,2.5,6,2.5s4.4-.8,6-2.5l4.5-4.5c3.3-3.3,3.3-8.7,0-12l-4.5-4.5c-1.7-1.7-3.8-2.5-6-2.5h0Z"/>
    <path class="cls-1" d="M9.2,54.7l-1.7-1.7c-.2-.3-1.1-1.4-1-3,0-1.8,1.3-2.9,1.5-3.1l4.7-4.7c.3-.2,1.5-1.1,3.2-1,1.3.1,2.2.8,2.5,1.1l1.4,1.5-2.6,2.5-1.7-1.1,1.4-1.4c-.4-.3-1-.7-1.8-.7-.6,0-1,.3-2.3,1.5-.9.9-1.5,1.4-2.7,2.7-1.2,1.2-1.8,1.8-1.8,2.5,0,.8.3,1.5.6,1.9l2.9-2.8-1.2-1.2,5.6-.4-7.2,7.3h0Z"/>
    <path class="cls-1" d="M21.5,45.4l1.7,1.7c.2.3,1.1,1.4,1,3,0,1.8-1.3,2.9-1.5,3.1l-4.7,4.7c-.3.2-1.5,1.1-3.2,1-1.3-.1-2.2-.8-2.5-1.1l-1.4-1.5,2.6-2.5,1.7,1.1-1.4,1.4c.4.3,1,.7,1.8.7.6,0,1-.3,2.3-1.5.9-.9,1.5-1.4,2.7-2.7,1.2-1.2,1.8-1.8,1.8-2.5,0-.8-.3-1.5-.6-1.9l-2.9,2.8,1.2,1.2-5.6.4,7.2-7.3h0Z"/>
  </g>
  <g>
    <path class="cls-1" d="M37.4,43.8h5c.5,0,.9.3,1.3.9,0,.2,0,.4,0,.5v.3c0,.5-.3.9-.9,1.3-.2,0-.4.1-.6.1h-4.2c-1.6,0-2.7.6-3.5,1.9-.2.4-.3.8-.3,1.3,0,1.2.7,2.2,2.2,2.8.5.2,1,.3,1.4.3h2.8v-1.6c0-.8.3-1.4,1-1.6.2,0,.3-.1.5-.1h.1c.7,0,1.2.4,1.5,1.2,0,0,0,.2,0,.2v3.7c0,.5-.3.9-.9,1.2-.2,0-.3.1-.5.1h-5.2c-1.4,0-2.7-.6-4-1.6-.7-.8-1.2-1.4-1.4-1.8-.4-.9-.7-1.7-.7-2.6v-.5c0-1.5.6-2.9,1.9-4.2,1.3-1.2,2.8-1.8,4.4-1.8h0Z"/>
    <path class="cls-1" d="M46.1,43.8h9.7c.5,0,1,.3,1.3.9,0,.2,0,.3,0,.4v.3c0,.5-.3.9-.9,1.3-.2,0-.4.1-.6.1h-8v1.6h6.2c.8,0,1.3.3,1.6.9,0,.2.1.3.1.5v.2c0,.6-.4,1.1-1.1,1.4-.1,0-.2,0-.3,0h-6.4v1.6h7.8c.9,0,1.5.4,1.7,1.3v.4c0,.5-.3.9-.9,1.2-.2,0-.3.1-.5.1h-9.9c-.5,0-1-.3-1.3-1,0-.2,0-.3,0-.4v-9.6c0-.6.4-1.1,1.1-1.4.1,0,.2,0,.3,0h0Z"/>
    <path class="cls-1" d="M59.6,43.8h9.7c.5,0,1,.3,1.3.9,0,.2,0,.3,0,.4v.3c0,.5-.3.9-.9,1.3-.2,0-.4.1-.6.1h-8v1.6h6.2c.8,0,1.3.3,1.6.9,0,.2.1.3.1.5v.2c0,.6-.4,1.1-1.1,1.4-.1,0-.2,0-.3,0h-6.4v1.6h7.8c.9,0,1.5.4,1.7,1.3v.4c0,.5-.3.9-.9,1.2-.2,0-.3.1-.5.1h-9.9c-.5,0-1-.3-1.3-1,0-.2,0-.3,0-.4v-9.6c0-.6.4-1.1,1.1-1.4.1,0,.2,0,.3,0h0Z"/>
    <path class="cls-1" d="M73.1,43.8h.1c.6,0,1.1.3,1.4,1,0,.2,0,.3,0,.5v2.3c4.6-2.4,7.1-3.7,7.5-3.8.1,0,.2,0,.3,0h.2c.7,0,1.1.4,1.4,1.2,0,0,0,.2,0,.2v.3c0,.6-.4,1-1.1,1.3-4.1,2.1-6.1,3.2-6.1,3.2h0c4.2,2.2,6.5,3.4,6.7,3.5.4.4.6.7.6,1v.3c0,.5-.3,1-1,1.3-.2,0-.3,0-.4,0h-.3c-.3,0-.9-.3-2.1-.9l-5.7-3v2.3c0,.7-.4,1.2-1.2,1.5-.1,0-.2,0-.3,0h0c-.8,0-1.3-.4-1.5-1.2,0,0,0-.1,0-.2v-9.6c0-.5.3-.9.8-1.2.2-.1.4-.2.7-.2h0Z"/>
    <path class="cls-1" d="M86.6,43.8h9.7c.5,0,1,.3,1.3.9,0,.2,0,.3,0,.4v.3c0,.4-.4.9-1.1,1.6-.5.5-2.5,2.5-6.1,6.1h0s5.5,0,5.5,0c.9,0,1.4.4,1.7,1.1,0,0,0,.2,0,.3v.3c0,.5-.3.9-.9,1.2-.2,0-.3.1-.5.1h-9.9c-.5,0-1-.3-1.3-1,0-.2,0-.3,0-.4v-.3c0-.5.4-1,1.1-1.6,1.4-1.4,3.4-3.4,6.1-6.1h-5.6c-.7,0-1.3-.4-1.5-1.1,0-.2,0-.3,0-.3v-.2c0-.6.4-1.1,1.1-1.4.1,0,.2,0,.3,0h0Z"/>
  </g>
</svg>