<?xml version="1.0" encoding="UTF-8"?>
<svg id="Layer_1" data-name="Layer 1" xmlns="http://www.w3.org/2000/svg" version="1.1" viewBox="0 0 100 100">
  <defs>
    <style>
      .cls-1 {
        fill: #ff4a17;
        stroke-width: 0px;
      }
    </style>
  </defs>
  <path class="cls-1" d="M50,10.2c6.3,0,12.2,2.6,16.6,6.6l16.6,16.6c9.2,9.2,9.2,23.6,0,32.8l-16.6,16.6c-4.4,4.4-10.3,6.6-16.6,6.6s-12.2-2.6-16.6-6.6l-16.6-16.6c-9.2-9.2-9.2-23.6,0-32.8l16.6-16.6c4.4-4.4,10.3-6.6,16.6-6.6M50,2.1c-8.1,0-16.2,2.9-22.1,9.2L11.3,27.9C-.8,40.1-.8,59.9,11.3,72.1l16.6,16.6c6.3,6.3,14,9.2,22.1,9.2s16.2-2.9,22.1-9.2l16.6-16.6c12.2-12.2,12.2-32,0-44.2l-16.6-16.6c-6.3-6.3-14-9.2-22.1-9.2h0Z"/>
  <path class="cls-1" d="M27.5,67.3l-6.3-6.3c-.7-1.1-4.1-5.2-3.7-11,0-6.6,4.8-10.7,5.5-11.4l17.3-17.3c1.1-.7,5.5-4.1,11.8-3.7,4.8.4,8.1,2.9,9.2,4.1l5.2,5.5-9.6,9.2-6.3-4.1,5.2-5.2c-1.5-1.1-3.7-2.6-6.6-2.6s-3.7,1.1-8.5,5.5c-3.3,3.3-5.5,5.2-9.9,9.9-4.4,4.4-6.6,6.6-6.6,9.2s1.1,5.5,2.2,7l10.7-10.3-4.4-4.4,20.6-1.5-26.5,26.9h0l.7.4Z"/>
  <path class="cls-1" d="M72.8,33.1l6.3,6.3c.7,1.1,4.1,5.2,3.7,11,0,6.6-4.8,10.7-5.5,11.4l-17.3,17.3c-1.1.7-5.5,4.1-11.8,3.7-4.8-.4-8.1-2.9-9.2-4.1l-5.2-5.5,9.6-9.2,6.3,4.1-5.2,5.2c1.5,1.1,3.7,2.6,6.6,2.6s3.7-1.1,8.5-5.5c3.3-3.3,5.5-5.2,9.9-9.9,4.4-4.4,6.6-6.6,6.6-9.2s-1.1-5.5-2.2-7l-10.7,10.3,4.4,4.4-20.6,1.5,26.5-26.9h0l-.7-.4Z"/>
</svg>